<?xml version="1.0" encoding="UTF-8" ?>
<!DOCTYPE svg PUBLIC "-//W3C//DTD SVG 1.1//EN" "http://www.w3.org/Graphics/SVG/1.1/DTD/svg11.dtd">
<svg width="1581pt" height="632pt" viewBox="0 0 1581 632" version="1.1" xmlns="http://www.w3.org/2000/svg">
<path fill="#fffeff" d=" M 0.00 0.00 L 1581.00 0.00 L 1581.00 632.00 L 0.00 632.00 L 0.00 0.00 Z" />
<path fill="#c9c9ca" d=" M 1246.68 35.71 C 1254.63 30.00 1263.41 25.51 1271.10 19.45 C 1287.12 29.98 1303.43 40.01 1319.58 50.32 C 1329.13 56.34 1338.58 62.53 1348.24 68.39 C 1345.47 71.05 1342.00 72.73 1338.84 74.82 C 1316.85 89.11 1294.63 103.02 1272.92 117.70 C 1247.38 101.06 1221.35 85.15 1195.89 68.42 C 1212.80 57.50 1229.70 46.54 1246.68 35.71 Z" />
<path fill="#747173" d=" M 1285.57 52.49 C 1287.47 51.16 1289.11 53.21 1289.09 55.03 C 1290.19 61.69 1291.17 68.39 1292.04 75.09 C 1291.88 75.60 1291.55 76.63 1291.39 77.14 C 1287.74 76.96 1283.73 77.71 1280.47 75.73 C 1277.72 74.25 1276.88 70.46 1277.95 67.69 C 1279.50 64.26 1283.13 62.79 1286.33 61.31 C 1285.95 58.39 1285.08 55.45 1285.57 52.49 Z" />
<path fill="#c9c9ca" d=" M 242.69 63.80 C 246.86 61.10 251.18 58.65 255.20 55.72 C 262.97 60.18 270.44 65.11 277.90 70.05 C 296.01 81.33 313.94 92.88 332.01 104.21 C 331.48 106.41 328.78 106.87 327.18 108.13 C 313.31 117.32 299.07 125.96 285.25 135.24 C 279.58 138.45 274.15 142.08 268.87 145.89 C 265.03 148.70 260.73 150.77 256.91 153.59 C 239.19 142.10 221.19 131.03 203.46 119.54 C 195.60 114.46 187.48 109.77 179.83 104.38 C 193.32 96.12 206.35 87.13 219.81 78.83 C 227.31 73.63 235.35 69.24 242.69 63.80 Z" />
<path fill="#747173" d=" M 1244.84 61.98 C 1248.22 59.36 1254.69 61.31 1254.62 66.05 C 1252.41 69.02 1248.26 69.10 1244.95 69.89 C 1245.95 71.15 1246.94 73.18 1248.94 72.72 C 1251.20 72.05 1253.34 71.00 1255.61 70.28 C 1255.41 75.62 1248.14 77.91 1244.39 74.61 C 1240.77 71.51 1240.36 64.52 1244.84 61.98 Z" />
<path fill="#747173" d=" M 1257.85 60.60 C 1262.76 59.76 1262.63 65.45 1262.42 68.79 C 1264.08 69.15 1263.91 66.83 1264.61 65.85 C 1265.56 63.57 1268.08 60.57 1270.79 62.15 C 1274.17 65.03 1275.44 69.89 1275.16 74.20 C 1274.57 74.36 1273.41 74.69 1272.83 74.85 C 1271.58 71.74 1271.25 68.21 1269.03 65.56 C 1266.44 69.05 1265.20 73.27 1262.96 76.95 C 1261.34 77.24 1260.45 76.61 1260.28 75.06 C 1259.55 70.23 1258.78 65.40 1257.85 60.60 Z" />
<path fill="#c9c9ca" d=" M 1244.96 66.52 C 1246.63 64.74 1248.83 63.70 1251.34 64.35 C 1249.67 66.09 1247.16 66.15 1244.96 66.52 Z" />
<path fill="#c9c9ca" d=" M 1281.16 70.91 C 1280.70 67.47 1284.47 66.17 1287.05 65.24 C 1287.40 67.84 1287.69 70.45 1287.90 73.07 C 1285.52 73.36 1281.93 73.99 1281.16 70.91 Z" />
<path fill="#c9c9ca" d=" M 1318.03 94.00 C 1329.01 87.23 1339.77 80.10 1350.67 73.18 C 1350.81 98.01 1350.78 122.85 1350.68 147.69 C 1349.69 148.44 1348.71 149.20 1347.76 149.95 C 1343.78 147.59 1339.85 145.17 1335.92 142.76 C 1336.98 140.66 1338.07 138.57 1339.15 136.48 C 1332.91 136.34 1326.67 136.22 1320.43 136.23 C 1323.49 141.62 1326.50 147.04 1329.55 152.45 C 1330.84 150.67 1332.05 148.83 1333.21 146.95 C 1336.50 148.69 1339.72 150.59 1342.89 152.57 C 1336.11 157.80 1328.55 161.89 1321.36 166.49 C 1305.94 176.55 1290.44 186.47 1274.80 196.19 C 1274.63 171.45 1274.68 146.72 1274.77 121.98 C 1288.88 112.18 1303.76 103.56 1318.03 94.00 Z" />
<path fill="#c9c9ca" d=" M 1193.82 73.27 C 1210.80 83.84 1227.54 94.85 1244.50 105.48 C 1252.71 111.08 1261.40 115.92 1269.49 121.70 C 1269.62 146.48 1269.51 171.25 1269.54 196.02 C 1259.90 190.23 1250.65 183.83 1240.97 178.10 C 1225.49 167.35 1208.88 158.29 1193.62 147.24 C 1193.89 122.58 1193.46 97.92 1193.82 73.27 Z" />
<path fill="#747173" d=" M 274.60 88.64 C 277.69 87.44 278.02 91.02 278.35 93.11 C 279.22 99.48 280.40 105.82 281.10 112.21 L 280.47 113.30 C 277.45 113.62 274.37 113.31 271.36 112.94 C 267.24 112.17 265.31 107.01 267.19 103.46 C 268.76 100.39 272.15 98.99 275.22 97.87 C 274.92 94.81 274.05 91.72 274.60 88.64 Z" />
<path fill="#747173" d=" M 246.69 97.44 C 247.96 97.20 249.98 96.46 250.58 98.20 C 251.37 100.28 251.66 102.51 252.07 104.69 C 253.56 102.17 254.80 98.76 257.98 98.03 C 262.16 98.79 263.30 103.77 264.06 107.31 C 264.59 108.86 263.98 112.46 261.64 110.79 C 260.50 107.99 260.13 104.89 258.53 102.28 C 258.28 102.33 257.78 102.42 257.53 102.47 C 255.22 105.82 253.88 109.73 252.15 113.39 C 251.48 113.18 250.15 112.75 249.49 112.53 C 248.40 107.53 248.14 102.37 246.69 97.44 Z" />
<path fill="#747173" d=" M 232.93 98.98 C 236.15 95.92 243.29 97.12 243.62 102.18 C 241.75 105.48 237.44 105.14 234.28 106.25 C 234.28 107.34 235.10 108.25 235.93 108.85 C 239.07 109.59 241.66 107.32 244.49 106.45 C 244.56 112.34 236.13 114.49 232.61 110.33 C 229.99 107.24 229.54 101.69 232.93 98.98 Z" />
<path fill="#c9c9ca" d=" M 270.32 108.04 C 269.19 104.56 272.99 102.19 275.95 101.81 C 276.34 104.35 276.69 106.89 277.02 109.44 C 274.80 109.56 271.58 110.52 270.32 108.04 Z" />
<path fill="#c9c9ca" d=" M 177.95 109.38 C 179.59 110.29 181.24 111.21 182.82 112.25 C 191.54 118.31 200.96 123.28 209.59 129.47 C 215.83 133.54 222.22 137.38 228.38 141.57 C 237.09 146.37 244.99 152.48 253.61 157.43 C 253.87 182.32 253.75 207.22 253.67 232.11 C 238.51 222.35 223.03 213.08 208.11 202.94 C 198.41 197.01 188.80 190.93 179.34 184.63 C 177.57 183.79 177.91 181.64 177.81 180.03 C 177.95 156.48 177.68 132.93 177.95 109.38 Z" />
<path fill="#c9c9ca" d=" M 318.05 120.02 C 323.65 116.67 328.73 112.42 334.75 109.81 C 334.83 134.48 334.87 159.15 334.77 183.82 C 333.87 184.56 332.97 185.31 332.08 186.07 C 328.06 183.65 324.04 181.23 320.02 178.80 C 321.06 176.71 322.12 174.62 323.17 172.53 C 317.03 172.39 310.89 172.25 304.76 172.29 C 307.64 177.78 310.57 183.26 313.95 188.47 C 315.09 186.64 316.22 184.79 317.35 182.96 C 320.67 184.69 323.89 186.60 327.06 188.60 C 316.93 195.74 306.11 201.85 295.85 208.80 C 288.11 213.31 280.94 218.73 273.21 223.26 C 268.37 226.10 263.98 229.68 258.87 232.06 C 258.55 208.71 258.88 185.34 258.69 161.99 C 258.78 160.32 258.45 158.18 260.07 157.11 C 273.55 148.15 287.32 139.64 300.99 130.96 C 306.49 127.02 312.29 123.56 318.05 120.02 Z" />
<path fill="#c9c9ca" d=" M 1431.57 148.55 C 1440.76 143.41 1448.90 136.64 1458.08 131.50 C 1466.30 135.89 1473.66 141.69 1481.77 146.26 C 1497.84 156.47 1513.72 166.96 1530.02 176.81 C 1531.72 177.90 1533.35 179.14 1534.94 180.42 C 1514.43 194.16 1493.31 206.99 1472.86 220.83 C 1468.38 223.38 1464.08 226.21 1459.87 229.15 C 1455.08 226.76 1450.95 223.31 1446.25 220.79 C 1442.19 218.62 1438.65 215.68 1434.82 213.17 C 1426.39 208.46 1418.53 202.82 1410.24 197.87 C 1401.30 191.69 1391.56 186.74 1382.87 180.21 C 1398.95 169.44 1415.39 159.18 1431.57 148.55 Z" />
<path fill="#fa21c0" d=" M 1320.43 136.23 C 1326.67 136.22 1332.91 136.34 1339.15 136.48 C 1338.07 138.57 1336.98 140.66 1335.92 142.76 C 1339.85 145.17 1343.78 147.59 1347.76 149.95 C 1360.72 157.83 1373.77 165.57 1386.73 173.46 C 1384.89 174.46 1382.91 176.83 1380.72 175.27 C 1368.07 167.77 1355.52 160.09 1342.89 152.57 C 1339.72 150.59 1336.50 148.69 1333.21 146.95 C 1332.05 148.83 1330.84 150.67 1329.55 152.45 C 1326.50 147.04 1323.49 141.62 1320.43 136.23 Z" />
<path fill="#c9c9ca" d=" M 932.58 155.76 C 938.41 152.79 943.18 148.10 949.08 145.29 C 953.02 145.25 956.03 148.75 959.26 150.69 C 976.09 161.22 992.76 171.98 1009.58 182.51 C 1015.25 186.41 1021.38 189.60 1026.95 193.67 C 1007.17 206.32 987.46 219.08 967.69 231.75 C 961.97 235.00 956.93 239.30 951.22 242.57 C 944.91 238.69 939.15 233.97 932.53 230.62 C 925.06 225.27 916.97 220.87 909.36 215.73 C 897.89 208.35 886.24 201.24 874.86 193.74 C 877.58 190.69 881.31 188.95 884.70 186.81 C 900.53 176.26 916.75 166.31 932.58 155.76 Z" />
<path fill="#53dae6" d=" M 442.31 167.29 C 447.47 170.16 451.86 174.22 457.20 176.80 C 477.09 189.69 497.29 202.13 517.21 214.98 C 517.75 215.36 519.74 216.44 518.18 217.06 C 500.91 228.56 483.26 239.49 465.94 250.91 C 459.78 254.67 453.72 258.60 447.87 262.83 C 446.28 263.76 444.37 265.63 442.46 264.33 C 438.49 262.16 434.68 259.66 431.03 256.99 C 412.17 245.21 393.43 233.20 374.63 221.30 C 371.95 219.66 369.00 218.29 366.94 215.84 C 392.27 199.99 417.29 183.62 442.31 167.29 Z" />
<path fill="#fa21c0" d=" M 304.76 172.29 C 310.89 172.25 317.03 172.39 323.17 172.53 C 322.12 174.62 321.06 176.71 320.02 178.80 C 324.04 181.23 328.06 183.65 332.08 186.07 C 344.12 193.34 356.13 200.65 368.25 207.79 C 369.29 208.20 369.86 208.95 369.99 210.04 C 368.59 211.26 366.48 212.54 364.74 211.20 C 352.14 203.74 339.64 196.10 327.06 188.60 C 323.89 186.60 320.67 184.69 317.35 182.96 C 316.22 184.79 315.09 186.64 313.95 188.47 C 310.57 183.26 307.64 177.78 304.76 172.29 Z" />
<path fill="#c9c9ca" d=" M 1514.42 199.50 C 1522.33 195.03 1529.76 189.80 1537.50 185.06 C 1537.57 209.87 1537.54 234.69 1537.52 259.51 C 1528.10 265.39 1518.99 271.77 1509.44 277.44 C 1501.49 282.84 1493.08 287.54 1485.27 293.15 C 1477.19 297.67 1469.78 303.27 1461.69 307.76 C 1461.45 283.09 1461.75 258.41 1461.54 233.73 C 1478.85 221.84 1497.14 211.45 1514.42 199.50 Z" />
<path fill="#c9c9ca" d=" M 1381.08 185.48 C 1398.48 195.71 1415.08 207.22 1432.29 217.77 C 1440.40 222.96 1448.36 228.39 1456.67 233.29 C 1456.74 258.18 1456.77 283.08 1456.68 307.97 C 1440.29 297.87 1424.29 287.14 1407.95 276.96 C 1406.67 275.83 1407.35 273.69 1407.02 272.16 C 1402.54 269.42 1397.84 266.99 1393.78 263.63 C 1398.71 260.74 1403.22 257.12 1408.51 254.84 C 1409.68 256.68 1410.87 258.51 1412.07 260.35 C 1415.16 254.84 1418.06 249.23 1420.86 243.57 C 1414.62 244.02 1408.38 244.49 1402.13 244.57 C 1403.18 246.62 1404.22 248.71 1405.19 250.82 C 1399.83 254.20 1394.42 257.51 1389.19 261.07 L 1389.05 261.16 C 1386.39 259.41 1383.74 257.66 1381.10 255.92 C 1380.83 232.45 1380.91 208.96 1381.08 185.48 Z" />
<path fill="#c9c9ca" d=" M 1013.93 207.93 C 1018.91 204.54 1024.18 201.59 1029.06 198.03 C 1029.53 211.35 1029.13 224.69 1029.26 238.02 C 1029.15 249.61 1029.48 261.22 1029.10 272.81 C 1027.10 273.99 1025.18 275.26 1023.33 276.63 C 1014.19 270.41 1004.86 264.50 995.73 258.28 C 994.65 259.49 993.59 260.70 992.54 261.92 C 1001.40 267.76 1010.22 273.65 1019.10 279.45 C 1008.96 285.88 998.68 292.10 988.62 298.67 C 977.10 306.50 965.17 313.69 953.39 321.09 C 953.35 296.21 953.28 271.32 953.42 246.44 C 973.75 233.88 993.66 220.62 1013.93 207.93 Z" />
<path fill="#c9c9ca" d=" M 872.79 198.77 C 876.17 200.38 879.30 202.45 882.37 204.58 C 893.78 211.80 905.30 218.82 916.48 226.39 C 927.23 233.05 937.91 239.82 948.43 246.83 C 948.44 271.50 948.51 296.17 948.43 320.84 C 946.52 320.00 944.66 319.08 942.94 317.94 C 935.79 313.01 928.32 308.58 920.99 303.94 C 913.78 298.67 905.85 294.46 898.62 289.23 C 898.64 287.93 898.68 286.63 898.73 285.33 C 894.16 282.76 889.64 280.08 885.39 277.00 C 890.27 273.90 894.97 270.47 900.19 267.93 C 901.54 269.28 902.00 272.90 904.23 272.61 C 907.26 267.53 910.05 262.26 912.26 256.77 C 906.17 257.41 900.04 257.54 893.93 257.69 C 894.91 259.77 895.96 261.85 897.05 263.90 C 891.62 267.36 886.18 270.81 880.73 274.23 C 877.99 272.60 875.30 270.91 872.71 269.09 C 872.71 245.65 872.55 222.21 872.79 198.77 Z" />
<path fill="#53dae6" d=" M 477.97 248.90 C 492.49 239.51 507.12 230.27 521.64 220.86 C 521.78 245.34 521.73 269.83 521.66 294.31 C 510.20 286.76 498.93 278.87 487.19 271.75 C 486.20 272.85 485.22 273.96 484.23 275.06 C 495.47 282.70 506.98 289.94 518.15 297.69 C 508.93 304.04 499.19 309.57 489.95 315.89 C 483.07 319.92 476.66 324.69 469.83 328.81 C 461.61 333.49 454.02 339.18 445.85 343.91 C 445.71 319.19 445.90 294.46 445.76 269.74 C 456.14 262.26 467.30 255.95 477.97 248.90 Z" />
<path fill="#53dae6" d=" M 364.71 221.11 C 370.47 223.88 375.36 228.08 380.95 231.15 C 389.56 236.88 398.55 242.01 407.01 247.97 C 417.88 254.86 428.86 261.57 439.58 268.70 C 441.19 269.52 440.67 271.55 440.83 273.03 C 440.71 296.66 440.93 320.29 440.73 343.92 C 424.24 333.60 407.83 323.12 391.58 312.48 C 390.96 311.12 391.46 309.53 391.36 308.09 C 386.56 305.77 382.23 302.65 377.69 299.88 L 378.61 299.27 C 383.10 296.24 387.77 293.50 392.21 290.39 C 393.54 292.36 394.87 294.34 396.18 296.33 C 399.19 290.78 402.28 285.28 404.95 279.56 C 398.61 280.04 392.28 280.50 385.93 280.65 C 387.20 282.52 388.47 284.39 389.76 286.26 C 386.01 289.14 381.86 291.45 377.95 294.10 C 376.25 295.20 374.50 296.34 372.46 296.69 C 369.91 294.87 366.72 293.64 364.85 291.06 C 364.54 267.75 364.81 244.42 364.71 221.11 Z" />
<path fill="#ef30d5" d=" M 1294.30 243.35 C 1304.47 237.22 1314.16 230.36 1324.12 223.92 C 1327.56 226.19 1331.06 228.36 1334.69 230.32 C 1350.85 241.24 1367.52 251.36 1384.00 261.80 C 1389.83 265.20 1395.13 269.47 1401.20 272.48 C 1399.35 275.07 1396.10 275.96 1393.65 277.82 C 1385.67 283.54 1377.03 288.26 1369.06 294.00 C 1360.67 298.82 1352.88 304.58 1344.53 309.48 C 1338.57 314.06 1331.99 317.69 1325.79 321.91 C 1307.79 310.30 1289.67 298.89 1271.57 287.43 C 1263.78 282.63 1256.27 277.36 1248.27 272.90 C 1263.73 263.24 1279.00 253.27 1294.30 243.35 Z" />
<path fill="#c9c9ca" d=" M 800.42 247.54 C 805.35 243.77 810.72 240.66 816.00 237.41 C 841.93 253.33 867.39 270.01 893.20 286.13 C 868.31 302.21 843.31 318.13 818.58 334.44 C 815.95 335.73 813.84 332.37 811.64 331.31 C 787.97 316.10 764.04 301.28 740.41 286.01 C 752.10 278.53 763.76 271.01 775.35 263.39 C 783.96 258.51 791.86 252.50 800.42 247.54 Z" />
<path fill="#fa21c0" d=" M 1402.13 244.57 C 1408.38 244.49 1414.62 244.02 1420.86 243.57 C 1418.06 249.23 1415.16 254.84 1412.07 260.35 C 1410.87 258.51 1409.68 256.68 1408.51 254.84 C 1403.22 257.12 1398.71 260.74 1393.78 263.63 C 1392.00 263.38 1390.67 261.89 1389.19 261.07 C 1394.42 257.51 1399.83 254.20 1405.19 250.82 C 1404.22 248.71 1403.18 246.62 1402.13 244.57 Z" />
<path fill="#fa21c0" d=" M 893.93 257.69 C 900.04 257.54 906.17 257.41 912.26 256.77 C 910.05 262.26 907.26 267.53 904.23 272.61 C 902.00 272.90 901.54 269.28 900.19 267.93 C 894.97 270.47 890.27 273.90 885.39 277.00 C 883.80 276.11 882.25 275.18 880.73 274.23 C 886.18 270.81 891.62 267.36 897.05 263.90 C 895.96 261.85 894.91 259.77 893.93 257.69 Z" />
<path fill="#fa21c0" d=" M 992.54 261.92 C 993.59 260.70 994.65 259.49 995.73 258.28 C 1004.86 264.50 1014.19 270.41 1023.33 276.63 C 1033.88 283.54 1044.10 291.01 1055.01 297.35 C 1055.91 295.72 1056.84 294.09 1057.77 292.46 C 1058.10 292.49 1058.78 292.56 1059.11 292.59 C 1061.43 298.09 1064.44 303.26 1066.99 308.66 C 1060.69 308.67 1054.45 307.92 1048.20 307.40 C 1049.60 305.47 1050.89 303.46 1051.99 301.33 C 1040.93 294.18 1029.99 286.85 1019.10 279.45 C 1010.22 273.65 1001.40 267.76 992.54 261.92 Z" />
<path fill="#c9c9ca" d=" M 304.40 262.41 C 305.90 261.60 307.47 259.59 309.33 260.51 C 331.53 274.71 353.83 288.79 376.05 302.95 C 379.15 304.89 382.39 306.61 385.26 308.89 C 378.37 314.29 370.50 318.23 363.42 323.35 C 345.62 334.47 328.08 345.98 310.53 357.49 C 308.99 358.02 307.59 356.39 306.30 355.73 C 299.20 350.28 291.04 346.44 283.86 341.11 C 266.81 330.54 249.91 319.68 232.96 308.91 C 256.56 293.11 280.86 278.31 304.40 262.41 Z" />
<path fill="#c9c9ca" d=" M 1060.16 314.87 C 1085.46 298.53 1110.78 282.26 1136.05 265.88 C 1141.28 269.84 1147.41 272.38 1152.64 276.38 C 1172.71 289.24 1192.74 302.20 1213.14 314.54 C 1209.63 317.70 1205.15 319.46 1201.46 322.39 C 1185.46 332.70 1169.45 343.00 1153.40 353.25 C 1148.39 357.14 1142.72 360.04 1137.60 363.76 C 1111.77 347.52 1086.18 330.84 1060.16 314.87 Z" />
<path fill="#fa21c0" d=" M 487.19 271.75 C 498.93 278.87 510.20 286.76 521.66 294.31 C 529.79 299.93 538.19 305.15 546.29 310.80 C 547.58 308.87 548.85 306.92 550.11 304.98 C 553.12 310.49 555.71 316.23 558.78 321.71 C 552.49 321.72 546.20 321.44 539.98 320.47 C 541.29 318.59 542.58 316.70 543.89 314.81 C 535.35 309.05 526.70 303.45 518.15 297.69 C 506.98 289.94 495.47 282.70 484.23 275.06 C 485.22 273.96 486.20 272.85 487.19 271.75 Z" />
<path fill="#ef30d5" d=" M 1246.72 277.84 C 1253.17 280.93 1258.75 285.51 1264.95 289.06 C 1276.96 296.29 1288.37 304.48 1300.39 311.71 C 1306.66 315.19 1312.31 319.67 1318.46 323.37 C 1319.98 324.65 1322.95 325.39 1322.52 327.91 C 1322.51 351.97 1322.56 376.04 1322.49 400.11 C 1319.27 398.58 1316.30 396.62 1313.39 394.59 C 1291.05 380.58 1268.94 366.22 1246.72 352.03 C 1246.67 327.30 1246.66 302.57 1246.72 277.84 Z" />
<path fill="#ef30d5" d=" M 1401.15 279.16 C 1401.99 278.71 1402.85 278.27 1403.73 277.85 C 1403.79 301.92 1403.76 325.99 1403.76 350.06 C 1403.91 351.42 1403.38 352.67 1402.09 353.23 C 1377.49 369.06 1352.71 384.60 1328.17 400.55 C 1327.96 375.70 1328.06 350.85 1328.10 326.00 C 1336.28 320.91 1344.01 315.12 1352.40 310.37 C 1368.64 299.94 1384.81 289.43 1401.15 279.16 Z" />
<path fill="#c9c9ca" d=" M 617.03 285.94 C 620.63 283.75 623.94 281.10 627.72 279.21 C 653.58 295.30 679.13 311.91 704.93 328.08 C 679.60 344.35 654.19 360.49 629.08 377.10 C 625.73 375.04 622.74 372.46 619.30 370.56 C 613.01 367.44 607.75 362.69 601.64 359.30 C 585.00 348.98 568.57 338.33 551.94 328.00 C 573.67 314.03 595.38 300.03 617.03 285.94 Z" />
<path fill="#fa21c0" d=" M 385.93 280.65 C 392.28 280.50 398.61 280.04 404.95 279.56 C 402.28 285.28 399.19 290.78 396.18 296.33 C 394.87 294.34 393.54 292.36 392.21 290.39 C 387.77 293.50 383.10 296.24 378.61 299.27 C 376.50 300.09 374.43 297.50 372.46 296.69 C 374.50 296.34 376.25 295.20 377.95 294.10 C 381.86 291.45 386.01 289.14 389.76 286.26 C 388.47 284.39 387.20 282.52 385.93 280.65 Z" />
<path fill="#c9c9ca" d=" M 738.53 291.09 C 741.68 292.60 744.64 294.48 747.49 296.51 C 763.97 306.63 779.99 317.48 796.47 327.60 C 802.18 331.72 808.43 335.02 814.15 339.13 C 814.30 363.85 814.31 388.58 814.15 413.29 C 798.41 404.10 783.32 393.85 767.95 384.06 C 758.74 378.74 750.18 372.38 740.99 367.05 C 739.99 366.24 738.21 365.58 738.52 363.99 C 738.49 339.69 738.44 315.39 738.53 291.09 Z" />
<path fill="#c9c9ca" d=" M 879.01 301.10 C 884.66 298.04 889.65 293.90 895.43 291.07 C 895.55 315.04 895.45 339.02 895.51 363.00 C 895.96 366.60 891.58 367.51 889.29 369.26 C 869.40 382.10 849.40 394.78 829.45 407.53 C 826.34 409.63 823.09 411.50 819.80 413.32 C 819.64 388.60 819.69 363.88 819.78 339.16 C 839.39 326.27 859.35 313.92 879.01 301.10 Z" />
<path fill="#c9c9ca" d=" M 118.03 303.00 C 119.21 302.10 120.75 301.94 121.91 302.97 C 146.89 319.05 172.11 334.77 197.12 350.79 C 184.55 359.43 171.39 367.20 158.74 375.73 C 146.06 383.46 134.05 392.22 121.20 399.65 C 116.03 396.60 111.43 392.68 106.08 389.93 C 91.78 380.48 77.17 371.50 62.70 362.31 C 56.88 358.17 50.28 355.18 44.91 350.42 C 69.30 334.63 93.92 319.20 118.03 303.00 Z" />
<path fill="#c9c9ca" d=" M 230.99 313.64 C 242.94 320.71 254.30 328.74 266.21 335.87 C 279.45 345.04 293.61 352.80 306.71 362.18 C 306.69 386.86 306.75 411.55 306.68 436.24 C 296.73 430.29 287.07 423.92 277.22 417.81 C 264.72 409.15 251.32 401.86 238.97 392.97 C 236.43 391.15 233.40 390.06 231.07 387.96 C 230.46 374.35 231.00 360.68 230.82 347.05 C 230.92 335.91 230.60 324.77 230.99 313.64 Z" />
<path fill="#c9c9ca" d=" M 360.20 331.11 C 369.43 325.43 378.24 319.03 387.76 313.88 C 387.90 338.54 387.82 363.21 387.84 387.87 C 384.95 390.02 381.79 391.77 378.80 393.79 C 370.61 399.77 361.59 404.45 353.29 410.28 C 346.14 414.29 339.72 419.42 332.62 423.52 C 325.54 427.51 319.16 432.64 311.87 436.26 C 311.60 412.83 311.88 389.39 311.71 365.96 C 311.82 364.32 311.41 362.16 313.22 361.31 C 321.10 355.76 329.54 351.05 337.48 345.60 C 345.26 341.09 352.53 335.79 360.20 331.11 Z" />
<path fill="#c9c9ca" d=" M 1058.60 319.64 C 1065.47 323.57 1071.95 328.15 1078.74 332.22 C 1086.12 336.35 1092.71 341.71 1100.01 345.98 C 1111.54 353.17 1123.07 360.38 1134.34 368.01 C 1134.38 392.75 1134.53 417.51 1134.26 442.26 C 1115.18 430.60 1096.59 418.16 1077.68 406.23 C 1071.21 402.29 1064.91 398.09 1058.54 393.99 C 1058.51 369.21 1058.40 344.42 1058.60 319.64 Z" />
<path fill="#c9c9ca" d=" M 1189.64 335.68 C 1198.59 331.03 1206.25 324.19 1215.44 320.01 C 1215.42 344.39 1215.62 368.78 1215.38 393.15 C 1213.46 395.99 1209.90 397.37 1207.36 399.68 C 1198.87 393.86 1190.22 388.28 1181.78 382.40 C 1180.80 383.66 1179.83 384.93 1178.87 386.20 C 1186.86 391.66 1194.90 397.04 1202.97 402.38 C 1181.42 415.19 1160.65 429.31 1139.39 442.62 C 1139.48 417.82 1139.43 393.02 1139.39 368.23 C 1155.77 356.82 1173.22 347.03 1189.64 335.68 Z" />
<path fill="#c9c9ca" d=" M 550.31 332.84 C 575.73 348.65 600.76 365.07 626.08 381.03 C 626.12 405.82 626.23 430.62 626.03 455.42 C 607.75 444.42 590.17 432.32 571.95 421.23 C 565.21 416.84 558.59 412.29 551.65 408.24 C 549.94 407.53 550.34 405.50 550.20 404.02 C 550.30 380.29 550.09 356.56 550.31 332.84 Z" />
<path fill="#c9c9ca" d=" M 687.82 344.82 C 694.48 341.18 700.40 336.36 707.20 332.96 C 707.39 356.64 707.20 380.33 707.30 404.01 C 707.52 408.81 701.86 410.24 698.78 412.74 C 690.69 407.31 682.70 401.72 674.48 396.49 C 672.42 395.36 671.68 398.41 670.70 399.63 C 678.73 404.86 686.58 410.34 694.61 415.57 C 679.01 424.84 663.94 434.95 648.65 444.71 C 642.66 447.86 637.54 452.47 631.27 455.11 C 631.20 430.52 631.13 405.93 631.30 381.35 C 649.80 368.69 669.14 357.25 687.82 344.82 Z" />
<path fill="#747173" d=" M 104.46 339.74 C 109.64 338.44 107.09 345.37 107.23 348.22 C 109.32 348.51 113.78 347.56 113.14 351.00 C 111.32 352.12 109.09 351.88 107.06 352.17 C 106.85 354.45 106.66 356.74 106.49 359.04 C 110.09 357.93 113.43 356.16 116.97 354.90 C 117.52 358.52 113.89 360.15 111.25 361.45 C 108.95 362.33 105.90 364.29 103.90 361.83 C 102.10 359.04 103.11 355.57 103.14 352.48 C 101.43 351.99 98.22 353.47 98.01 350.76 C 98.81 348.57 101.69 349.22 103.50 348.57 C 103.69 345.61 103.75 342.62 104.46 339.74 Z" />
<path fill="#747173" d=" M 156.62 339.72 C 161.85 338.50 159.26 345.36 159.29 348.22 C 161.53 348.58 166.04 347.48 165.30 351.11 C 163.37 352.01 161.18 351.91 159.11 352.12 C 159.01 354.43 158.92 356.75 158.84 359.07 C 162.00 358.08 164.85 356.34 167.98 355.31 C 170.04 354.64 169.24 357.50 168.38 358.28 C 166.02 360.46 162.99 361.81 159.95 362.77 C 158.48 363.49 157.04 362.85 155.93 361.83 C 154.71 358.87 155.36 355.58 155.40 352.47 C 153.83 352.42 152.27 352.38 150.72 352.22 C 148.92 348.78 153.68 349.12 155.67 348.54 C 155.79 345.58 155.87 342.59 156.62 339.72 Z" />
<path fill="#747173" d=" M 119.59 344.67 C 122.25 342.32 126.84 338.93 130.06 342.15 C 131.73 345.94 131.04 350.24 131.33 354.26 C 131.92 355.54 133.90 357.00 132.63 358.47 C 129.32 359.39 126.25 360.94 123.02 362.07 C 118.46 362.19 117.38 356.01 120.17 353.24 C 121.89 350.75 124.99 350.46 127.72 351.02 C 127.64 348.77 127.48 346.52 127.25 344.29 C 124.45 345.17 122.21 347.10 119.77 348.64 C 117.18 348.70 118.07 345.44 119.59 344.67 Z" />
<path fill="#747173" d=" M 84.05 349.86 C 81.99 344.38 90.56 339.19 94.41 343.70 C 95.43 344.95 95.19 346.65 95.08 348.14 C 93.12 348.70 92.38 346.45 91.35 345.32 C 89.63 345.94 88.03 346.85 86.60 348.01 C 89.81 351.38 95.13 352.52 97.26 356.87 C 97.99 361.48 92.72 363.20 89.13 363.66 C 86.97 364.18 83.04 364.18 83.13 361.10 C 86.24 359.08 90.85 360.40 93.95 357.73 C 91.04 354.60 86.59 353.32 84.05 349.86 Z" />
<path fill="#747173" d=" M 139.71 348.40 C 142.40 345.13 145.99 342.00 150.57 342.71 C 149.52 346.43 144.73 346.78 143.18 350.21 C 141.04 353.37 142.00 357.65 139.96 360.74 C 139.48 360.56 138.53 360.20 138.06 360.02 C 135.69 354.97 135.41 349.10 134.94 343.59 C 135.71 343.74 137.26 344.04 138.03 344.18 C 138.75 346.28 137.58 348.61 138.40 350.69 C 139.61 351.59 141.21 349.31 139.71 348.40 Z" />
<path fill="#c9c9ca" d=" M 122.11 358.68 C 122.14 357.02 122.39 355.15 124.07 354.36 C 125.39 353.06 127.54 355.23 126.86 356.59 C 125.39 357.52 123.71 358.04 122.11 358.68 Z" />
<path fill="#c9c9ca" d=" M 42.80 355.66 C 61.26 366.93 79.26 378.92 97.58 390.43 C 104.48 394.92 111.65 399.02 118.29 403.91 C 118.54 404.91 118.65 405.93 118.61 406.98 C 118.52 430.70 118.62 454.43 118.56 478.15 C 112.60 475.13 107.28 471.04 101.61 467.54 C 93.75 463.21 86.57 457.76 78.88 453.14 C 70.03 447.26 60.74 442.08 52.08 435.91 C 49.16 433.68 45.68 432.32 42.85 429.98 C 42.36 416.36 42.80 402.70 42.65 389.06 C 42.74 377.93 42.46 366.79 42.80 355.66 Z" />
<path fill="#c9c9ca" d=" M 163.42 378.45 C 175.36 371.03 186.94 363.01 199.08 355.94 C 199.39 380.59 199.27 405.25 199.14 429.90 C 197.84 431.10 196.55 432.32 195.27 433.55 C 185.10 426.64 174.95 419.69 164.71 412.86 C 163.93 414.25 162.99 415.53 162.22 416.93 C 171.58 423.19 180.85 429.58 190.21 435.83 C 186.26 438.72 182.21 441.48 177.92 443.85 C 164.52 452.06 151.61 461.02 138.17 469.15 C 133.26 472.02 128.94 475.92 123.56 477.92 C 123.53 453.27 123.51 428.62 123.57 403.97 C 136.74 395.28 150.26 387.14 163.42 378.45 Z" />
<path fill="#fa21c0" d=" M 1178.87 386.20 C 1179.83 384.93 1180.80 383.66 1181.78 382.40 C 1190.22 388.28 1198.87 393.86 1207.36 399.68 C 1220.32 408.10 1232.89 417.15 1246.04 425.27 C 1247.21 423.41 1248.50 421.62 1249.99 420.00 C 1252.52 425.57 1255.68 430.86 1257.93 436.57 C 1251.86 436.72 1245.86 435.76 1239.83 435.47 C 1240.87 433.38 1242.00 431.33 1243.06 429.25 C 1229.68 420.31 1216.35 411.31 1202.97 402.38 C 1194.90 397.04 1186.86 391.66 1178.87 386.20 Z" />
<path fill="#fa21c0" d=" M 670.70 399.63 C 671.68 398.41 672.42 395.36 674.48 396.49 C 682.70 401.72 690.69 407.31 698.78 412.74 C 711.93 421.23 724.62 430.43 737.95 438.64 C 739.00 436.74 740.08 434.86 741.20 433.00 C 744.53 438.28 746.86 444.13 749.83 449.63 C 743.59 449.79 737.35 449.31 731.18 448.42 C 732.52 446.52 733.80 444.59 734.96 442.59 C 721.48 433.63 708.07 424.56 694.61 415.57 C 686.58 410.34 678.73 404.86 670.70 399.63 Z" />
<path fill="#c9c9ca" d=" M 1312.35 405.37 C 1314.19 404.15 1315.91 402.61 1318.09 402.01 C 1320.73 402.85 1322.73 404.98 1325.35 405.87 C 1328.04 404.64 1330.47 402.93 1332.99 401.37 C 1349.23 411.25 1365.04 421.83 1381.23 431.79 C 1388.14 436.77 1395.93 440.48 1402.60 445.78 C 1377.53 462.26 1352.13 478.20 1327.07 494.68 C 1319.01 488.61 1310.08 483.91 1301.79 478.21 C 1284.69 467.45 1267.63 456.62 1250.60 445.77 C 1252.92 443.19 1256.10 441.70 1258.97 439.83 C 1276.78 428.37 1294.60 416.91 1312.35 405.37 Z" />
<path fill="#fa21c0" d=" M 1323.74 410.70 C 1324.74 408.93 1325.51 406.79 1327.52 405.91 C 1330.17 411.21 1333.68 416.04 1336.08 421.47 C 1333.84 421.49 1331.59 421.50 1329.37 421.50 C 1329.13 430.82 1329.34 440.14 1329.30 449.46 C 1327.68 449.48 1326.08 449.51 1324.50 449.55 C 1324.41 440.26 1324.45 430.97 1324.41 421.68 C 1322.19 421.72 1319.98 421.75 1317.79 421.77 C 1319.49 417.93 1321.80 414.42 1323.74 410.70 Z" />
<path fill="#fa21c0" d=" M 162.22 416.93 C 162.99 415.53 163.93 414.25 164.71 412.86 C 174.95 419.69 185.10 426.64 195.27 433.55 C 207.98 441.92 220.40 450.73 233.20 458.95 C 234.36 457.11 235.21 454.77 237.40 453.90 C 239.73 459.50 242.81 464.76 244.97 470.44 C 239.06 469.83 233.14 469.34 227.20 469.28 C 227.24 468.79 227.31 467.82 227.35 467.34 C 228.46 465.89 229.48 464.36 230.01 462.60 C 216.64 453.84 203.52 444.69 190.21 435.83 C 180.85 429.58 171.58 423.19 162.22 416.93 Z" />
<path fill="#ab51f7" d=" M 791.76 426.81 C 797.40 422.79 803.24 419.02 809.17 415.45 C 812.22 415.29 814.50 418.21 816.97 419.70 C 819.49 417.81 822.14 416.10 824.86 414.50 C 842.32 425.96 860.23 436.71 877.65 448.24 C 883.54 451.52 888.96 455.54 894.84 458.85 C 875.81 471.03 856.73 483.17 837.86 495.60 C 831.23 499.14 825.48 504.08 818.99 507.89 C 793.48 491.15 767.40 475.29 741.83 458.63 C 758.68 448.36 774.87 437.02 791.76 426.81 Z" />
<path fill="#fa21c0" d=" M 818.29 418.94 C 822.41 423.51 824.75 429.36 827.93 434.58 C 825.78 434.62 823.62 434.63 821.48 434.63 C 820.99 436.37 820.64 438.16 820.71 439.98 C 820.79 447.60 820.72 455.23 820.81 462.86 C 819.28 462.86 817.75 462.86 816.23 462.87 C 816.10 453.66 816.65 444.42 815.76 435.24 C 813.75 435.26 811.74 435.27 809.75 435.27 C 811.74 429.43 815.45 424.39 818.29 418.94 Z" />
<path fill="#c9c9ca" d=" M 298.16 440.11 C 299.60 439.26 301.11 438.14 302.86 438.27 C 305.19 439.23 307.17 440.82 309.25 442.22 C 311.87 440.68 314.45 439.06 317.00 437.40 C 325.03 441.74 332.26 447.35 340.18 451.88 C 355.70 461.98 371.55 471.59 387.07 481.71 C 369.53 492.96 352.01 504.21 334.54 515.55 C 331.21 517.50 327.81 519.35 324.80 521.78 C 320.73 525.07 316.05 527.45 311.74 530.39 C 303.37 526.28 296.21 520.15 288.00 515.76 C 275.98 507.82 263.78 500.17 251.56 492.56 C 245.81 488.92 240.21 485.03 234.23 481.77 C 243.62 475.18 253.53 469.39 263.06 463.02 C 274.70 455.28 286.72 448.14 298.16 440.11 Z" />
<path fill="#fa21c0" d=" M 308.63 444.52 C 308.80 444.45 309.13 444.32 309.30 444.26 C 312.39 449.36 315.59 454.44 318.14 459.85 C 315.89 460.08 313.63 460.23 311.37 460.33 C 311.34 469.10 311.39 477.87 311.38 486.64 C 309.76 486.66 308.14 486.68 306.53 486.71 C 306.50 477.93 306.47 469.14 306.49 460.36 C 304.29 460.42 302.08 460.45 299.88 460.49 C 302.47 455.00 305.54 449.73 308.63 444.52 Z" />
<path fill="#c9c9ca" d=" M 1248.34 450.80 C 1253.07 452.22 1256.61 455.88 1260.92 458.15 C 1276.35 468.04 1291.71 477.99 1307.22 487.75 C 1312.72 491.61 1318.88 494.54 1323.99 498.97 C 1324.29 523.62 1324.18 548.32 1324.04 572.99 C 1316.88 568.84 1310.21 563.95 1303.01 559.90 C 1292.46 553.16 1282.17 546.02 1271.36 539.71 C 1263.69 534.71 1256.17 529.51 1248.32 524.81 C 1248.33 500.14 1248.26 475.47 1248.34 450.80 Z" />
<path fill="#c9c9ca" d=" M 1389.33 460.27 C 1394.82 457.38 1399.37 452.90 1405.23 450.71 C 1405.54 475.20 1405.24 499.71 1405.41 524.20 C 1389.59 535.70 1372.38 545.17 1356.29 556.28 C 1347.23 561.76 1338.50 567.75 1329.35 573.07 C 1329.36 548.26 1329.18 523.45 1329.40 498.64 C 1349.34 485.79 1369.43 473.18 1389.33 460.27 Z" />
<path fill="#ab51f7" d=" M 739.98 463.72 C 745.01 465.80 748.93 469.75 753.81 472.14 C 761.99 477.75 770.69 482.56 778.79 488.30 C 791.09 496.25 803.77 503.65 815.77 512.09 C 815.80 536.89 815.77 561.70 815.78 586.51 C 810.85 582.93 805.43 580.11 800.50 576.53 C 786.93 568.57 774.14 559.39 760.69 551.24 C 754.03 547.36 747.82 542.80 741.28 538.75 C 739.48 537.86 739.99 535.58 739.85 533.96 C 739.98 510.55 739.73 487.13 739.98 463.72 Z" />
<path fill="#ab51f7" d=" M 845.41 496.38 C 862.51 485.44 879.47 474.23 896.82 463.71 C 897.34 473.11 897.15 482.55 897.00 491.96 C 897.29 500.29 897.26 508.64 896.91 516.96 C 897.13 523.32 897.38 529.70 897.09 536.06 C 897.07 537.18 896.60 538.05 895.66 538.66 C 880.36 549.17 864.26 558.47 848.92 568.93 C 839.44 574.73 830.07 580.69 820.78 586.78 C 820.76 562.08 820.83 537.39 820.73 512.70 C 828.40 506.47 837.17 501.79 845.41 496.38 Z" />
<path fill="#c9c9ca" d=" M 232.51 486.11 C 238.47 490.37 244.93 493.87 250.88 498.15 C 264.22 505.97 276.78 515.06 290.13 522.87 C 296.22 526.84 302.36 530.73 308.33 534.88 C 308.22 559.68 308.56 584.50 308.16 609.30 C 295.92 600.95 282.99 593.64 270.81 585.21 C 257.97 577.10 245.03 569.14 232.43 560.67 C 232.52 535.81 232.32 510.96 232.51 486.11 Z" />
<path fill="#c9c9ca" d=" M 372.20 497.17 C 377.83 493.63 383.23 489.66 389.24 486.74 C 389.70 511.23 389.25 535.73 389.48 560.23 C 382.62 565.61 375.11 570.12 367.64 574.59 C 349.70 586.52 331.25 597.64 313.37 609.66 C 313.42 587.09 313.39 564.51 313.36 541.93 C 313.44 539.60 313.03 537.16 313.72 534.92 C 318.52 531.24 323.88 528.34 328.75 524.74 C 343.49 515.96 357.61 506.20 372.20 497.17 Z" />
</svg>
