<!DOCTYPE svg PUBLIC "-//W3C//DTD SVG 20010904//EN" "http://www.w3.org/TR/2001/REC-SVG-20010904/DTD/svg10.dtd">
<svg version="1.0" xmlns="http://www.w3.org/2000/svg" width="1000px" height="1000px" viewBox="0 0 10000 10000" preserveAspectRatio="xMidYMid meet">
<g id="layer1" fill="#ffffff" stroke="none">
 <path d="M4944 9877 c-11 -12 -67 -51 -124 -87 -57 -36 -133 -84 -168 -107 -36 -24 -66 -43 -68 -43 -2 0 -36 -22 -76 -48 -92 -62 -170 -112 -383 -247 -93 -59 -192 -122 -220 -140 -27 -18 -90 -58 -140 -90 -49 -31 -109 -70 -132 -86 -23 -16 -44 -29 -47 -29 -3 0 -27 -15 -53 -33 -27 -19 -55 -37 -63 -40 -8 -4 -48 -28 -87 -54 -40 -27 -132 -86 -205 -133 -73 -46 -182 -116 -243 -156 -252 -163 -280 -181 -290 -185 -5 -2 -34 -19 -62 -37 l-53 -34 0 -1208 c0 -1199 0 -1208 -20 -1213 -16 -4 -20 -14 -20 -52 0 -49 -21 -78 -78 -106 -15 -8 -52 -31 -82 -52 -30 -20 -111 -72 -180 -115 -69 -43 -168 -106 -220 -139 -52 -34 -115 -74 -140 -89 -42 -26 -209 -134 -415 -270 -49 -32 -97 -62 -105 -66 -8 -4 -78 -47 -155 -97 -77 -49 -212 -135 -300 -191 -88 -56 -234 -150 -325 -210 -91 -60 -181 -119 -200 -130 -19 -11 -78 -47 -130 -79 l-95 -58 -3 -1212 c-2 -1203 -2 -1211 -22 -1211 -18 0 -20 -7 -20 -60 0 -43 4 -60 13 -60 13 0 68 -34 417 -258 30 -19 71 -45 90 -57 62 -39 270 -173 455 -294 99 -65 185 -120 190 -122 6 -2 65 -40 133 -84 184 -120 439 -284 517 -334 39 -24 116 -74 172 -110 56 -36 148 -95 205 -131 194 -123 233 -150 240 -170 11 -29 88 -29 95 0 3 11 10 20 15 20 6 0 27 13 47 28 20 16 88 59 151 97 105 62 162 99 277 177 23 15 44 28 48 28 3 0 18 8 33 18 15 11 86 56 157 102 72 46 142 91 157 102 15 10 29 18 32 18 3 0 31 17 63 39 56 37 180 115 215 136 10 6 79 50 155 99 76 49 171 109 212 134 41 25 109 69 152 96 43 28 117 76 165 106 48 30 116 73 150 95 35 22 86 54 114 70 28 17 100 62 160 101 132 87 181 108 201 90 8 -7 145 -95 304 -196 160 -101 315 -200 345 -220 30 -20 80 -53 110 -72 130 -84 328 -212 368 -239 23 -16 45 -29 48 -29 3 0 26 -15 52 -32 26 -18 55 -37 64 -43 9 -5 100 -64 203 -130 102 -66 200 -129 218 -139 17 -11 109 -70 202 -131 94 -61 234 -151 312 -200 78 -49 144 -98 147 -107 3 -13 14 -18 40 -18 30 0 38 5 46 25 5 13 28 34 51 47 53 29 64 36 121 76 26 17 49 32 53 32 3 0 18 8 33 18 48 33 147 97 157 102 6 3 31 20 57 38 26 17 51 32 56 32 5 0 15 6 21 14 7 8 26 21 44 30 18 9 59 34 92 56 33 21 91 58 128 82 38 24 79 50 92 58 12 8 47 30 76 48 30 18 73 45 96 60 23 15 77 49 120 76 89 56 141 89 270 172 139 89 265 169 398 252 66 42 145 91 175 111 95 60 371 229 403 246 18 10 19 57 18 1275 -1 1092 -4 1266 -16 1275 -8 6 -48 30 -90 55 -82 49 -226 141 -493 317 -95 62 -175 113 -177 113 -2 0 -57 34 -122 76 -65 42 -151 97 -192 123 -87 55 -150 94 -291 186 -58 37 -127 82 -155 100 -27 18 -103 66 -167 109 -64 42 -119 76 -122 76 -2 0 -51 31 -108 68 -89 59 -225 146 -341 217 -108 67 -156 102 -157 113 0 7 -7 15 -15 18 -8 4 -15 16 -15 28 0 12 -4 26 -10 32 -6 6 -11 433 -12 1218 l-3 1208 -45 25 c-25 14 -59 36 -77 49 -17 13 -35 24 -38 24 -4 0 -29 16 -55 35 -26 19 -51 35 -55 35 -5 0 -22 11 -39 23 -17 13 -101 68 -186 122 -85 54 -195 124 -243 157 -48 32 -90 58 -92 58 -3 0 -28 16 -55 35 -27 19 -53 35 -56 35 -4 0 -29 16 -55 35 -27 19 -52 35 -55 35 -4 0 -28 16 -54 35 -26 19 -51 35 -55 35 -4 0 -25 13 -48 28 -62 43 -127 85 -147 97 -10 5 -134 84 -275 175 -141 91 -264 170 -273 175 -10 6 -44 28 -77 51 -33 22 -67 44 -75 48 -8 4 -41 23 -72 44 -31 20 -108 70 -171 110 -64 40 -118 80 -121 88 -9 24 -97 18 -122 -9z m-34 -1312 l0 -1095 -57 -37 c-32 -20 -130 -83 -218 -141 -198 -129 -196 -128 -385 -247 -257 -161 -373 -235 -625 -400 -81 -53 -442 -282 -588 -374 -32 -20 -125 -80 -207 -133 -82 -54 -151 -98 -154 -98 -3 0 -6 492 -6 1093 l0 1092 118 74 c64 40 196 124 292 187 96 62 216 138 265 169 50 31 131 82 180 114 50 32 135 87 190 122 55 34 172 110 260 167 187 122 183 120 390 250 88 55 204 129 257 164 54 35 127 81 164 103 37 22 78 50 93 62 14 12 27 23 29 23 1 0 2 -493 2 -1095z m360 990 c80 -51 204 -131 275 -176 187 -119 319 -203 460 -294 389 -251 493 -317 829 -530 202 -129 399 -256 437 -281 l69 -48 0 -1093 c0 -873 -3 -1093 -12 -1087 -7 4 -58 38 -113 74 -55 37 -248 161 -430 275 -181 115 -357 227 -390 249 -33 23 -224 145 -425 273 -357 226 -549 349 -757 486 l-103 67 0 1090 c0 600 3 1090 8 1090 4 0 72 -43 152 -95z m-165 -2309 c33 -22 150 -98 260 -169 110 -72 263 -171 340 -222 77 -50 252 -163 388 -251 343 -219 502 -321 642 -413 135 -88 284 -183 428 -275 l98 -63 -128 -80 c-140 -87 -263 -165 -747 -472 -175 -111 -348 -222 -385 -245 -36 -24 -109 -69 -161 -101 -52 -33 -133 -84 -180 -116 -86 -57 -184 -120 -273 -175 -26 -16 -62 -39 -80 -51 -18 -12 -52 -34 -77 -49 -25 -15 -89 -56 -142 -91 -54 -34 -102 -63 -107 -63 -6 0 -67 37 -135 82 -69 46 -182 120 -253 165 -70 46 -186 122 -258 169 -71 48 -164 107 -205 132 -68 41 -163 103 -460 297 -52 34 -135 88 -185 120 -49 32 -124 79 -165 106 -92 60 -352 226 -477 306 -51 32 -92 60 -93 63 0 3 64 45 143 94 226 142 281 177 392 249 58 37 143 91 189 120 99 61 584 368 754 478 64 41 173 110 242 154 117 73 191 120 318 201 28 19 78 51 110 71 31 20 72 47 91 59 19 13 39 20 45 16 6 -4 38 -25 71 -46z m2285 -2748 l0 -1093 -158 -100 c-86 -54 -223 -142 -304 -195 -81 -52 -169 -108 -195 -124 -27 -16 -91 -57 -143 -91 -52 -34 -109 -70 -127 -81 -28 -16 -202 -128 -505 -323 -47 -31 -122 -78 -165 -105 -43 -28 -134 -86 -203 -131 -69 -45 -140 -90 -157 -101 -18 -10 -87 -54 -154 -97 -66 -43 -123 -77 -125 -74 -2 2 -1 496 3 1097 l6 1092 89 57 c82 52 226 144 358 229 30 20 71 46 90 57 19 12 82 52 140 89 58 37 142 91 187 119 44 29 165 106 267 172 231 150 287 186 355 227 71 44 80 50 426 273 165 106 303 194 308 194 4 1 7 -491 7 -1091z m293 1037 c43 -27 148 -95 233 -150 85 -55 173 -111 196 -125 22 -14 90 -56 149 -95 60 -38 172 -110 250 -160 77 -49 206 -133 287 -185 81 -53 165 -106 187 -119 22 -13 76 -48 120 -76 44 -29 181 -117 305 -195 124 -79 267 -170 318 -203 l92 -59 0 -1095 0 -1094 -22 12 c-13 7 -99 63 -193 124 -93 61 -191 125 -217 141 -110 68 -610 387 -776 495 -64 42 -166 108 -227 146 -151 95 -344 218 -437 278 -43 28 -141 91 -218 140 l-139 90 -1 1093 c0 602 3 1092 8 1090 4 -1 42 -25 85 -53z m-5253 -1059 l0 -1094 -185 -119 c-102 -65 -234 -149 -293 -188 -60 -38 -134 -86 -166 -105 -31 -19 -103 -65 -159 -101 -56 -36 -223 -144 -372 -239 -148 -95 -308 -198 -355 -228 -47 -31 -112 -72 -145 -92 -60 -35 -153 -95 -418 -268 l-142 -92 -3 1092 c-2 1037 -2 1094 15 1106 26 20 382 248 423 272 19 11 61 37 92 58 32 20 118 75 190 121 73 46 169 107 213 136 151 97 280 180 372 240 51 33 114 73 141 89 26 16 103 66 172 111 69 45 136 88 150 95 22 12 158 99 390 251 41 27 76 49 77 49 2 0 3 -492 3 -1094z m325 1019 c54 -36 254 -165 446 -288 192 -122 382 -243 421 -269 40 -26 97 -62 125 -80 159 -100 561 -356 708 -451 206 -134 250 -162 338 -218 l67 -43 0 -1093 0 -1094 -22 12 c-23 12 -113 70 -278 177 -92 60 -175 113 -230 148 -19 12 -83 53 -143 90 -59 38 -157 101 -218 139 -60 39 -185 119 -277 179 -92 60 -204 132 -249 160 -177 110 -753 478 -777 497 l-26 20 0 1090 c0 611 4 1089 9 1089 4 0 52 -29 106 -65z m5111 -2495 c81 -52 223 -144 316 -205 93 -60 225 -146 294 -190 224 -144 307 -197 454 -293 132 -86 216 -140 423 -273 40 -25 124 -80 187 -121 63 -41 132 -84 153 -97 20 -12 37 -26 37 -29 0 -4 -26 -23 -58 -43 -31 -20 -169 -108 -307 -195 -137 -86 -347 -219 -465 -294 -118 -75 -377 -239 -575 -365 -198 -125 -396 -251 -440 -280 -44 -28 -101 -64 -127 -81 -27 -16 -105 -66 -174 -111 l-126 -82 -131 88 c-191 126 -363 238 -702 456 -165 106 -388 250 -495 320 -107 69 -252 163 -322 208 -70 45 -169 109 -220 142 -51 33 -151 97 -223 143 -71 45 -131 86 -132 90 -1 4 59 45 133 92 74 47 154 97 177 112 23 15 56 35 72 44 17 9 154 96 305 192 371 236 358 228 505 324 72 46 153 98 180 113 28 16 106 66 175 110 126 82 340 219 545 348 61 38 125 79 143 92 l34 23 109 -72 c60 -39 175 -114 255 -166z m-5303 198 c12 -6 65 -39 117 -73 52 -34 115 -74 140 -89 25 -15 56 -35 70 -46 35 -26 370 -245 460 -300 41 -26 127 -80 190 -122 63 -41 201 -130 305 -198 105 -67 242 -156 305 -197 63 -41 142 -91 175 -112 55 -35 139 -89 373 -240 l82 -54 -52 -33 c-29 -18 -84 -52 -123 -75 -38 -23 -126 -79 -195 -124 -69 -45 -192 -123 -275 -175 -82 -51 -207 -131 -277 -176 -71 -46 -176 -113 -235 -149 -60 -36 -198 -124 -308 -195 -110 -70 -256 -163 -325 -206 -69 -42 -141 -89 -160 -104 -19 -14 -69 -46 -110 -70 -41 -24 -104 -63 -139 -87 -36 -24 -71 -43 -79 -43 -15 0 -83 43 -437 275 -93 61 -198 129 -232 151 -112 71 -445 286 -623 402 -96 63 -231 150 -300 194 -69 44 -177 113 -240 154 -63 41 -180 116 -259 166 -121 77 -141 94 -127 102 10 6 68 44 129 83 62 40 139 89 172 110 89 55 458 288 550 348 44 28 105 67 135 85 30 19 111 71 180 116 69 45 175 111 235 148 61 37 126 78 145 91 199 130 338 219 399 255 41 24 126 79 190 121 64 43 117 78 119 78 2 1 13 -4 25 -11z"/>
 </g>
<g id="layer2" fill="#a94df7" stroke="none">
 <path d="M4879 9657 c-15 -12 -56 -40 -93 -62 -37 -22 -110 -68 -164 -103 -53 -35 -169 -109 -257 -164 -201 -127 -203 -128 -365 -234 -150 -98 -396 -255 -653 -417 -53 -34 -174 -111 -268 -172 -94 -60 -228 -146 -297 -190 l-127 -81 -3 -1104 c-1 -607 1 -1107 6 -1112 4 -4 78 38 164 95 87 56 183 118 215 138 153 96 508 321 588 374 252 165 368 239 625 400 187 117 181 114 400 257 96 62 199 129 228 147 l52 33 -2 1106 c-2 726 -6 1106 -13 1108 -5 2 -22 -7 -36 -19z"/>
 <path d="M5096 9673 c-3 -4 -6 -502 -6 -1108 l0 -1102 128 -83 c282 -184 402 -262 752 -484 201 -127 385 -245 410 -262 25 -17 207 -134 405 -259 198 -125 404 -257 457 -292 53 -36 102 -62 107 -58 8 4 11 342 11 1108 l0 1102 -82 55 c-46 30 -247 159 -448 287 -332 211 -437 278 -825 528 -138 89 -266 171 -460 294 -71 45 -188 121 -260 167 -154 100 -180 115 -189 107z"/>
 <path d="M4989 7296 c-19 -12 -60 -39 -91 -59 -32 -20 -82 -52 -110 -71 -127 -81 -201 -128 -318 -201 -69 -44 -178 -113 -242 -154 -170 -110 -655 -417 -754 -478 -46 -29 -131 -83 -189 -120 -57 -38 -134 -87 -172 -111 -292 -182 -378 -239 -378 -251 0 -13 62 -56 355 -242 80 -51 188 -120 240 -154 52 -34 129 -83 170 -110 41 -26 118 -76 170 -110 297 -195 392 -256 460 -297 41 -25 134 -84 205 -132 72 -47 188 -123 258 -169 71 -45 184 -119 253 -165 68 -45 129 -82 135 -82 5 0 53 29 107 63 53 35 117 76 142 91 25 15 59 37 77 49 18 12 54 35 80 51 89 55 187 118 273 175 47 32 128 83 180 116 52 32 125 77 161 101 63 40 527 335 854 542 83 52 204 128 270 170 182 113 178 98 49 180 -231 149 -323 208 -439 283 -140 92 -299 194 -642 413 -136 88 -311 201 -388 251 -77 51 -230 150 -340 222 -179 116 -300 195 -331 215 -6 4 -26 -3 -45 -16z"/>
 </g>
<g id="layer3" fill="#ef27d5" stroke="none">
 <path d="M7175 5479 c-204 -130 -360 -230 -495 -317 -30 -20 -71 -45 -90 -57 -46 -29 -234 -150 -448 -288 -95 -62 -208 -134 -253 -162 -44 -27 -105 -67 -137 -87 -31 -20 -79 -51 -107 -68 -27 -17 -69 -43 -92 -58 -23 -15 -125 -80 -226 -144 l-184 -118 -6 -1107 c-4 -609 -4 -1110 1 -1115 4 -4 66 30 137 77 72 46 144 92 160 101 17 9 86 54 155 99 69 45 160 103 203 131 43 27 118 74 165 105 303 195 477 307 505 323 18 11 77 49 132 84 119 77 147 94 245 156 41 26 185 118 320 204 l245 157 3 1105 c1 607 -1 1107 -5 1111 -5 5 -107 -55 -228 -132z"/>
 <path d="M7577 5613 c-4 -3 -7 -503 -7 -1110 l0 -1103 149 -97 c83 -54 185 -120 228 -148 43 -27 141 -89 218 -138 77 -49 183 -116 235 -150 52 -33 148 -94 212 -136 169 -110 668 -429 776 -495 26 -16 124 -80 217 -141 202 -133 214 -140 226 -128 5 5 8 469 7 1109 l-3 1099 -75 50 c-41 28 -181 118 -310 200 -129 81 -278 176 -330 210 -52 34 -113 72 -135 85 -22 13 -106 67 -187 120 -81 52 -210 136 -287 185 -78 50 -190 122 -250 160 -59 39 -127 81 -150 95 -23 14 -90 57 -149 95 -59 39 -159 103 -222 143 -63 41 -124 80 -136 88 -11 8 -24 11 -27 7z"/>
 <path d="M7468 3235 c-18 -13 -82 -54 -143 -92 -205 -129 -419 -266 -545 -348 -69 -44 -147 -94 -175 -110 -27 -15 -108 -67 -180 -113 -147 -96 -134 -88 -505 -324 -151 -96 -288 -183 -305 -192 -16 -9 -49 -29 -72 -44 -23 -15 -102 -65 -175 -111 -196 -124 -191 -104 -46 -195 68 -43 175 -112 238 -153 63 -41 174 -113 245 -159 72 -45 218 -140 325 -209 107 -70 330 -214 495 -320 339 -218 511 -330 702 -456 l131 -88 126 82 c69 45 147 95 174 111 26 17 83 53 127 81 44 29 242 155 440 280 198 126 457 290 575 365 227 144 652 413 783 495 42 27 77 52 77 56 0 4 -24 22 -52 40 -29 18 -105 67 -168 108 -63 41 -147 95 -187 120 -207 133 -291 187 -423 273 -147 96 -230 149 -454 293 -69 44 -201 130 -294 190 -93 61 -235 153 -316 205 -80 52 -195 127 -255 166 l-109 72 -34 -23z"/>
 </g>
<g id="layer4" fill="#50dae6" stroke="none">
 <path d="M2350 5541 c-232 -152 -368 -239 -390 -251 -14 -7 -81 -50 -150 -95 -69 -45 -146 -95 -172 -111 -27 -16 -90 -56 -141 -89 -92 -60 -221 -143 -372 -240 -44 -29 -140 -90 -213 -136 -72 -46 -158 -101 -190 -121 -31 -21 -73 -47 -92 -58 -59 -34 -403 -257 -433 -280 l-27 -22 2 -1100 c2 -736 6 -1102 13 -1105 6 -2 74 39 152 89 265 173 358 233 418 268 33 20 98 61 145 92 47 30 207 133 355 228 149 95 316 203 372 239 56 36 128 82 159 101 32 19 90 56 128 81 39 26 161 104 271 174 110 70 215 138 233 151 l32 25 -2 1101 c-2 741 -6 1102 -13 1105 -6 2 -44 -19 -85 -46z"/>
 <path d="M2627 5583 c-4 -3 -7 -503 -7 -1109 l0 -1103 128 -84 c133 -87 554 -356 695 -443 45 -28 157 -100 249 -160 92 -60 217 -140 277 -179 61 -38 159 -101 218 -139 60 -37 124 -78 143 -90 62 -39 142 -91 275 -177 212 -138 255 -163 265 -153 7 7 9 410 8 1109 l-3 1099 -75 49 c-41 28 -97 64 -125 82 -27 17 -126 81 -220 142 -147 95 -549 351 -708 451 -28 18 -85 54 -125 80 -39 26 -231 148 -425 271 -193 124 -379 243 -412 266 -85 60 -151 96 -158 88z"/>
 <path d="M2419 3151 c-64 -42 -149 -97 -190 -121 -61 -36 -200 -125 -399 -255 -19 -13 -84 -54 -145 -91 -60 -37 -166 -103 -235 -148 -69 -45 -150 -97 -180 -116 -30 -18 -80 -49 -110 -69 -30 -20 -163 -104 -295 -187 -216 -137 -434 -276 -562 -359 -26 -16 -48 -35 -50 -41 -2 -6 52 -45 119 -87 68 -43 188 -120 268 -171 80 -52 201 -131 270 -174 69 -44 204 -131 300 -194 178 -116 511 -331 623 -402 34 -22 139 -90 232 -151 354 -232 422 -275 437 -275 8 0 43 19 79 43 35 24 98 63 139 87 41 24 91 56 110 70 19 15 91 62 160 104 69 43 215 136 325 206 110 71 248 159 308 195 59 36 164 103 235 149 70 45 195 125 277 176 83 52 206 130 275 175 69 45 157 101 195 124 140 85 187 116 189 126 1 12 -104 83 -434 293 -52 33 -147 94 -210 135 -63 41 -200 130 -305 197 -104 68 -242 157 -305 198 -63 42 -149 96 -190 122 -90 55 -425 274 -460 300 -14 11 -45 31 -70 46 -25 15 -88 55 -140 89 -91 60 -135 86 -142 84 -2 0 -55 -35 -119 -78z"/>
 </g>

</svg>