<svg xmlns="http://www.w3.org/2000/svg" width="91.868" height="27.439"><defs><clipPath clipPathUnits="userSpaceOnUse" id="a"><path d="M278.35 382.998h72v20.358h-72v-20.358z"/></clipPath></defs><g clip-path="url(#a)" transform="matrix(1.25 0 0 -1.25 -347.07 505.187)"><path d="M313.015 387.426h-2.233c-.01 0-.016.002-.022.009l-1.924 2.35-1.926-2.35c-.004-.007-.01-.01-.02-.01h-1.79c-.01 0-.019.006-.027.018-.003.007-.003.02.004.028l2.834 3.48-2.8 3.449a.037.037 0 0 0-.006.033c.005.006.016.016.025.016h2.234c.007 0 .015-.004.021-.014l1.688-2.092 1.718 2.093a.024.024 0 0 0 .021.013h1.821c.011 0 .022-.01.026-.016a.033.033 0 0 0-.004-.033l-2.659-3.193 3.037-3.736c.008-.008.011-.021.005-.028a.026.026 0 0 0-.024-.017m12.087 5.784c-.989 0-1.664-.6-1.857-1.642h3.364v.067c0 .835-.615 1.576-1.507 1.576m3.242-2.713a.03.03 0 0 0-.024-.013h-5.11c.105-1.19.878-1.868 2.13-1.868.77 0 1.587.263 2.743.878.021.012.042-.006.042-.028l-.002-1.572c-.002-.013-.008-.021-.017-.024-1.075-.453-2.155-.762-3.004-.762-2.2 0-3.796 1.604-3.796 3.813s1.595 3.813 3.796 3.813c2.008 0 3.298-1.353 3.298-3.214 0-.301-.052-1.001-.056-1.023m10.383 5.401a1.13 1.13 0 0 0-1.137 1.12c0 .636.51 1.15 1.137 1.15s1.138-.514 1.138-1.15a1.13 1.13 0 0 0-1.138-1.12m-.918-8.473c-.018 0-.03.01-.03.029v6.965c0 .014.01.025.023.028h1.846a.027.027 0 0 0 .023-.028v-6.965c0-.018-.012-.03-.027-.03h-1.835zm-21.416 1.049a4.05 4.05 0 0 0-1.066.152l.004 4.468c.459.146.858.215 1.253.215 1.28 0 2.139-.944 2.139-2.346 0-1.512-.915-2.49-2.33-2.49m.502 6.26a4.872 4.872 0 0 1-1.6-.285h-1.836c-.015 0-.026-.013-.026-.03v-11.421a4.236 4.236 0 0 1 1.895.744l-.001 3.474a8.525 8.525 0 0 1 1.188-.107c2.516 0 4.144 1.508 4.144 3.843 0 2.226-1.55 3.782-3.764 3.782m17.553-5.681c-.575-.302-1.09-.445-1.572-.445-1.14 0-1.822.805-1.822 2.153 0 1.56.872 2.569 2.22 2.569.372 0 .734-.091 1.174-.29v-3.987zm0 9.083v-3.646a5.32 5.32 0 0 1-1.493.225c-2.19 0-3.842-1.65-3.842-3.842 0-2.182 1.458-3.764 3.464-3.764.695 0 1.345.174 2.11.568l-.001-.629a4.206 4.206 0 0 1 1.657.703v11.131a4.084 4.084 0 0 1-1.895-.746m11.619-9.069c-.556-.321-1.033-.475-1.46-.475-1.22 0-1.95.802-1.95 2.155 0 1.537.86 2.568 2.14 2.568.344 0 .76-.131 1.27-.401v-3.847zm1.897 5.466a.079.079 0 0 1-.08.077l-1.491-.002a.082.082 0 0 1-.081-.08v-.254h-.038c-.69.302-1.276.44-1.855.44-2.064 0-3.682-1.71-3.682-3.903 0-2.217 1.448-3.703 3.603-3.703.577 0 1.316.04 2.008.836v-.896a4.297 4.297 0 0 1 1.614.706l.002 6.779zm-47.969-5.364l4.634.002a4.187 4.187 0 0 0-.647-1.742h-4.821c-.59 0-1.075.457-1.133 1.035-.003.009-.006.017-.007.025v9.139a.088.088 0 0 0 .007.023 1.148 1.148 0 0 0 1.133 1.038l.053-.002h5.405a4.258 4.258 0 0 0-.647-1.754h-3.977v-2.488h3.937c.016 0 .028-.011.028-.027v-1.726a.028.028 0 0 0-.028-.027h-3.937v-3.496zm-5.801-1.885c-.458 0-.74.358-.74.796 0 .469.323.796.74.796.413 0 .736-.327.736-.796 0-.47-.323-.796-.736-.796m0 1.682a.858.858 0 0 1-.87-.886c0-.504.362-.883.87-.883.463 0 .866.35.866.883a.858.858 0 0 1-.866.886" fill="#072f54"/><path d="M293.985 388.152v.323h.218c.11 0 .24-.017.24-.15 0-.16-.12-.173-.257-.173h-.2zm.62.151c0 .211-.13.301-.383.301h-.397v-1.047h.173v.448h.16l.271-.448h.195l-.294.46c.16.02.274.096.274.286m54.882 4.987c-.458 0-.743.357-.743.795 0 .47.325.796.743.796.412 0 .736-.327.736-.796 0-.47-.324-.796-.736-.796m0 1.682a.858.858 0 0 1-.87-.886c0-.504.361-.883.87-.883.462 0 .864.352.864.883a.857.857 0 0 1-.864.886" fill="#072f54"/><path d="M349.277 394.159v.322h.218c.11 0 .24-.016.24-.15 0-.16-.12-.172-.256-.172h-.201zm.62.15c0 .211-.13.301-.382.301h-.397v-1.047h.17v.447h.162l.271-.447h.194l-.293.46c.158.018.274.096.274.286m-61.68 2.632l-.336.951-2.85 3.81.512.126 4.914-4.248 2.892.827c.34.088.726.107 1.02.105a8.34 8.34 0 0 1-15.426-.713 8.306 8.306 0 0 1-.391-4.047l6.928 2.407 2.737.782zm6.456.82a4.5 4.5 0 0 0-.997-.5l-2.898-.827-1.934-6.208-.502-.163.408 4.741-.228.985-2.716-.775-7.178-1.69a8.34 8.34 0 0 1 16.032-1.123 8.314 8.314 0 0 1 .013 5.56" fill="#072f54"/><path d="M288.52 395.789l.23-.984-.41-4.741.503.163 1.934 6.207 2.898.827c.37.119.743.337.997.5a8.42 8.42 0 0 1-.304.75 4.237 4.237 0 0 1-1.02-.103l-2.892-.83-4.915 4.25-.511-.127 2.849-3.81.337-.95-2.738-.783-6.927-2.405c.022-.144.047-.287.076-.43l7.179 1.69 2.715.776z" fill="#fbc108"/></g></svg>