<svg viewBox="0 0 10000 10000" xmlns="http://www.w3.org/2000/svg" class="css-xalni7"><path d="M2100 7143c-19-2-111-22-205-44-255-59-346-90-529-182-417-207-769-566-975-991-67-139-103-249-163-496l-43-175v-510l48-195c61-249 94-345 171-500 118-236 255-421 440-598 175-167 335-278 549-383 157-77 250-108 507-171l175-43 260 1h260l180 43c253 60 329 84 503 158 240 102 427 211 692 402 281 204 514 401 840 712l195 186 145-139c627-603 1113-960 1593-1168 138-60 212-83 477-147l195-48h260l260 1 175 42c251 61 374 103 531 182 420 210 769 564 976 990 68 140 103 246 165 500l43 175-1 260v260l-47 188c-60 242-95 345-165 487-131 267-354 547-582 731-173 140-439 290-621 349-104 34-388 103-489 119-99 16-423 14-521-4-102-18-333-74-449-108-211-63-503-208-750-373-323-215-662-497-1050-871l-145-140-185 176c-624 595-1083 930-1551 1129-142 61-240 92-479 149l-185 45-235 3c-129 2-251 1-270-2zm520-937c198-53 329-106 499-200 320-177 686-469 1111-884l125-122-127-124c-531-517-948-827-1328-989-58-25-121-48-140-52s-56-16-82-26c-105-41-470-50-623-16-202 46-422 166-580 318-168 161-301 396-351 619-25 110-25 424 0 540 23 112 104 298 179 413 113 174 305 340 497 430 145 69 216 90 375 111 70 10 392-3 445-18zm5344-1c183-41 416-169 564-309 170-160 308-400 358-623 26-112 25-424 0-543-46-214-185-459-351-619-158-151-383-275-579-317-96-21-338-29-461-16-332 37-761 265-1215 645-120 100-474 424-560 511l-64 66 64 66c86 87 440 411 560 511 283 237 572 426 810 528 168 73 254 97 415 119 69 10 393-4 459-19z"/></svg>