<svg xmlns="http://www.w3.org/2000/svg" version="1.0" width="1123" height="1121" viewBox="0 0 11230 11210"><path d="M5506.012 11076.799c-39.099-25.818-123.47-83.908-187.263-126.939-65.85-43.03-168.742-111.878-226.362-152.757-261.345-174.273-413.625-275.394-654.391-432.454-141.991-94.667-366.295-243.121-497.997-331.333-349.831-236.668-1347.881-897.182-1551.607-1028.424-94.66-62.394-269.577-178.576-388.931-258.182-117.297-81.757-275.75-187.181-353.948-238.817-600.888-391.575-777.861-514.212-777.861-540.03 0-27.97 127.585-120.484 730.53-520.666 164.628-109.727 386.874-258.181 493.882-331.333 107.007-73.151 265.46-178.575 349.832-236.666 84.37-55.94 242.824-163.515 349.831-236.666 611.178-419.545 806.672-550.787 946.605-639 84.37-53.787 275.75-180.726 421.856-283.999 148.164-101.12 386.873-264.636 530.921-363.605 146.107-96.818 378.642-256.03 520.633-355 139.932-96.818 265.46-176.424 277.808-176.424 10.289 0 109.065 62.394 220.188 135.545 109.065 75.303 240.767 163.516 292.212 195.788 51.446 32.272 121.413 79.606 158.454 105.424 37.04 25.818 111.123 75.303 164.627 109.727 183.147 118.333 384.815 253.878 561.789 376.515 96.718 68.848 263.403 178.575 370.41 249.575 107.007 68.849 257.23 165.666 331.311 217.303 129.644 86.06 1084.48 720.756 1757.392 1166.12 170.8 111.878 419.798 275.393 555.615 365.756 374.526 243.121 366.295 210.849 100.834 387.273-475.36 320.575-664.68 447.514-903.39 608.877-288.097 197.94-615.292 417.394-1321.13 888.575-279.865 189.333-639.986 432.456-798.44 540.031-158.453 109.727-473.302 322.726-699.664 477.634-368.353 249.576-617.35 419.545-681.143 462.576-12.347 8.606-53.504-6.454-92.603-34.424z" fill="#aaf" stroke-width="2.104"/><path d="M9881.414 7664.739c-426.299-274.704-752.292-486.014-1034.402-669.854-62.69-42.262-148.369-95.09-188.073-120.447-96.126-61.28-488.99-316.965-936.186-608.573-198.522-131.013-434.658-283.156-528.695-342.323-91.947-57.054-219.419-141.578-286.29-183.84-64.78-42.262-165.085-107.768-223.597-143.691-56.422-35.923-144.19-90.864-192.253-122.56-48.063-31.697-261.212-169.048-472.272-304.287l-384.506-249.346-12.538-2339.205c-8.358-1286.88-8.358-2345.545 2.09-2356.11 8.359-8.453 137.92 63.393 286.29 162.709 150.458 97.203 300.916 194.405 334.351 213.423 35.525 19.018 179.715 114.108 323.904 209.197 144.19 95.09 334.353 217.65 424.21 276.817 89.857 57.054 246.585 156.37 344.8 221.876 633.18 412.055 996.788 648.723 1055.3 682.532 37.614 23.244 160.907 103.542 275.84 177.5 248.675 162.71 307.187 198.632 511.977 329.645 85.678 54.94 386.595 249.346 668.705 431.073l511.977 331.757 6.269 2334.979c2.089 1282.654-2.089 2339.205-10.449 2347.657-10.448 10.566-223.598-116.22-476.452-278.93z" fill="#aaf" stroke-width="2.101"/><path d="M5465.383 4895.892l4928.486 3145.51" fill="none" stroke="#fff" stroke-width="207.226" stroke-linejoin="bevel"/><path d="M798.146 7912.614c-8.305-6.334-14.534-1061.87-14.534-2341.18v-2328.51l265.75-177.33c276.132-183.663 1150.2-751.541 1442.941-935.205 93.428-59.11 325.96-211.107 516.967-337.771 191.008-126.665 450.53-295.55 575.1-377.882 126.647-80.22 330.112-213.218 452.606-293.44 124.57-78.109 257.446-164.663 296.893-189.996 128.723-82.331 294.817-192.107 570.948-373.66 440.149-291.327 529.424-344.104 550.186-322.993 14.533 14.777 18.685 865.54 16.61 2341.178l-6.23 2320.068-155.712 103.442c-85.123 59.11-201.39 135.11-259.522 173.108-56.057 35.889-261.598 170.997-456.758 299.773-305.198 200.552-1139.82 740.986-1469.931 952.093-58.133 38-176.475 113.998-259.522 168.886-80.97 54.888-479.596 312.438-882.373 572.1-400.702 261.773-786.87 512.99-855.384 561.545-176.475 126.665-313.502 202.663-328.035 185.775z" fill="#aaf" stroke-width="2.094"/><path d="M798.146 7912.614L5635.14 4919.818" fill="none" stroke="#fff" stroke-width="207.226" stroke-linejoin="bevel"/><path d="M5436.426 11006.924c-15-12-56-40-93-62s-110-68-164-103c-53-35-169-109-257-164-201-127-203-128-365-234-150-98-396-255-653-417-53-34-174-111.001-268-172.001-94-60-228-146-297-190l-127-81-3-1104c-1-607 1-1107 6-1112 4-4 78 38 164 95 87 56 183 118 215 138 153 96 508 321 588 374 252 165 368 239 625 400 187 117 181 114 400 257 96 62 199 129 228 147l52 33-2 1106c-2 726.001-6 1106.001-13 1108.001-5 2-22-7-36-19zm217 16c-3-4-6-502-6-1108.001v-1102l128-83c282-184 402-262 752-484 201-127 385-245 410-262s207-134 405-259 404-257 457-292c53-36 102-62 107-58 8 4 11 342 11 1108v1102l-82 55c-46 30-247 159-448 287-332 211.001-437 278.001-825 528.001-138 89-266 171-460 294-71 45-188 121-260 167-154 100-180 115-189 107z" fill="#a94df7"/><path d="M5554.48 8639.641c-19.267-12.304-60.842-39.99-92.276-60.496-32.45-20.508-83.15-53.32-111.543-72.802-128.782-83.054-203.82-131.247-322.46-206.099-69.968-45.116-180.497-115.866-245.395-157.906-172.384-112.79-664.186-427.578-764.575-490.126-46.645-29.736-132.837-85.105-191.65-123.044-57.8-38.964-135.88-89.207-174.413-113.816-296.095-186.617-383.301-245.063-383.301-257.367 0-13.33 62.87-57.42 359.979-248.139 81.122-52.294 190.636-123.044 243.366-157.907 52.729-34.862 130.809-85.105 172.384-112.79 41.575-26.66 119.655-77.928 172.384-112.79 301.166-199.947 397.498-262.495 466.452-304.535 41.575-25.634 135.88-86.13 207.875-135.348 73.01-48.192 190.637-126.12 261.619-173.287 71.995-46.142 186.58-122.019 256.548-169.186 68.954-46.141 130.81-84.08 136.894-84.08 5.07 0 53.743 29.736 108.5 64.598 53.744 35.888 118.641 77.928 143.992 93.309 25.35 15.38 59.827 37.938 78.08 50.243 18.252 12.304 54.757 35.887 81.122 52.293 90.248 56.396 189.623 120.994 276.829 179.44 47.659 32.811 129.795 85.105 182.524 118.942 52.73 32.812 126.753 78.954 163.258 103.562 63.884 41.015 534.392 343.499 865.978 555.75 84.164 53.319 206.861 131.247 273.787 174.312 184.553 115.867 180.496 100.486 49.687 184.566-234.24 152.78-327.53 213.277-445.157 290.18-141.964 94.333-303.194 198.92-651.004 423.476-137.908 90.233-315.362 206.099-393.442 257.367-78.08 52.294-233.226 153.806-344.769 227.632-181.51 118.943-304.207 199.947-335.642 220.454-6.084 4.102-26.365-3.076-45.631-16.406z" fill="#a94df7" stroke-width="1.02"/><path d="M7774.527 6889.762c-213.503-131.508-376.77-232.668-518.058-320.677-31.397-20.232-74.307-45.522-94.192-57.66-48.143-29.337-244.9-151.74-468.869-291.34-99.425-62.72-217.689-135.555-264.785-163.88-46.05-27.313-109.89-67.777-143.381-88.009-32.444-20.232-82.68-51.591-111.985-68.788-28.257-17.198-72.214-43.5-96.285-58.673-24.071-15.174-130.823-80.928-236.527-145.67l-192.571-119.369-6.28-1119.838c-4.186-616.063-4.186-1122.873 1.047-1127.931 4.186-4.047 69.074 30.348 143.381 77.893 75.354 46.533 150.708 93.067 167.453 102.171 17.792 9.104 90.006 54.626 162.22 100.148 72.215 45.522 167.453 104.195 212.456 132.52 45.003 27.313 123.497 74.858 172.686 106.217 317.114 197.262 499.22 310.56 528.524 326.746 18.838 11.128 80.587 49.568 138.149 84.974 124.543 77.893 153.847 95.09 256.412 157.81 42.91 26.301 193.618 119.368 334.906 206.366l256.412 158.82 3.14 1117.816c1.047 614.04-1.046 1119.838-5.233 1123.884-5.233 5.058-111.984-55.637-238.62-133.53z" fill="#ef27d5" stroke-width="1.029"/><path d="M8134.426 6982.923c-4-3-7-503-7-1110v-1103l149-97c83-54 185-120 228-148 43-27 141-89 218-138s183-116 235-150c52-33 148-94 212-136 169-110 668-429 776-495 26-16 124-80 217-141 202-133 214-140 226-128 5 5 8 469 7 1109l-3 1099-75 50c-41 28-181 118-310 200-129 81-278 176-330 210s-113 72-135 85-106 67-187 120c-81 52-210 136-287 185-78 50-190 122-250 160-59 39-127 81-150 95s-90 57-149 95c-59 39-159 103-222 143-63 41-124 80-136 88-11 8-24 11-27 7zm-109-2378c-18-13-82-54-143-92-205-129-419-266-545-348-69-44-147-94-175-110-27-15-108-67-180-113-147-96-134-88-505-324-151-96-288-183-305-192-16-9-49-29-72-44s-102-65-175-111c-196-124-191-104-46-195 68-43 175-112 238-153s174-113 245-159c72-45 218-140 325-209 107-70 330-214 495-320 339-218 511-330 702-456l131-88 126 82c69 45 147 95 174 111 26 17 83 53 127 81 44 29 242 155 440 280 198 126 457 290 575 365 227 144 652 413 783 495 42 27 77 52 77 56s-24 22-52 40c-29 18-105 67-168 108s-147 95-187 120c-207 133-291 187-423 273-147 96-230 149-454 293-69 44-201 130-294 190-93 61-235 153-316 205-80 52-195 127-255 166l-109 72z" fill="#ef27d5"/><path d="M2907.426 6910.923c-232-152-368-239-390-251-14-7-81-50-150-95s-146-95-172-111c-27-16-90-56-141-89-92-60-221-143-372-240-44-29-140-90-213-136-72-46-158-101-190-121-31-21-73-47-92-58-59-34-403-257-433-280l-27-22 2-1100c2-736 6-1102 13-1105 6-2 74 39 152 89 265 173 358 233 418 268 33 20 98 61 145 92 47 30 207 133 355 228 149 95 316 203 372 239s128 82 159 101c32 19 90 56 128 81 39 26 161 104 271 174s215 138 233 151l32 25-2 1101c-2 741-6 1102-13 1105-6 2-44-19-85-46z" fill="#50dae6"/><path d="M3184.59 6952.923c-4.094-3-7.164-503-7.164-1109v-1103l131.002-84c136.12-87 566.994-356 711.301-443 46.055-28 160.682-100 254.84-160 94.158-60 222.09-140 283.497-179 62.43-38 162.73-101 223.113-139 61.407-37 126.909-78 146.354-90 63.454-39 145.33-91 281.45-177 216.973-138 260.981-163 271.216-153 7.164 7 9.21 410 8.187 1109l-3.07 1099-76.76 49c-41.96 28-99.274 64-127.93 82-27.634 17-128.956 81-225.16 142-150.449 95-561.878 351-724.607 451-28.657 18-86.993 54-127.932 80-39.914 26-236.418 148-434.968 271-197.527 124-387.89 243-421.663 266-86.994 60-154.542 96-161.706 88z" fill="#50dae6" stroke-width="1.012"/><path d="M2976.426 4520.923c-64-42-149-97-190-121-61-36-200-125-399-255-19-13-84-54-145-91-60-37-166-103-235-148s-150-97-180-116c-30-18-80-49-110-69s-163-104-295-187c-216-137-434-276-562-359-26-16-48-35-50-41s52-45 119-87c68-43 188-120 268-171 80-52 201-131 270-174 69-44 204-131 300-194 178-116 511-331 623-402 34-22 139-90 232-151 354-232 422-275 437-275 8 0 43 19 79 43 35 24 98 63 139 87s91 56 110 70c19 15 91 62 160 104 69 43 215 136 325 206 110 71 248 159 308 195 59 36 164 103 235 149 70 45 195 125 277 176 83 52 206 130 275 175s157 101 195 124c140 85 187 116 189 126 1 12-104 83-434 293-52 33-147 94-210 135s-200 130-305 197c-104 68-242 157-305 198-63 42-149 96-190 122-90 55-425 274-460 300-14 11-45 31-70 46s-88 55-140 89c-91 60-135 86-142 84-2 0-55-35-119-78z" fill="#50dae6"/><path d="M799.28 3209.667l4788.607 3063.219" fill="none" stroke="#fff" stroke-width="200.88" stroke-linejoin="bevel"/><path d="M5587.887 6272.886l4769.441-3033.223" fill="none" stroke="#fff" stroke-width="202.976" stroke-linejoin="bevel"/><path d="M5589.535 11058.926l-1.961-4860.367" fill="none" stroke="#fff" stroke-width="195.99" stroke-linejoin="bevel"/><path d="M5531.822 67.361l4865.506 3212.302M751.93 7838.203l4921.496 3264.721M783.612 3222.923l14.534 4689.69m-55.72-4609.69L5631.822 67.361m4725.506 3132.302l16.541 4881.74m-4800.443 3041.521l4840.443-3121.521m-7276.443-3260.48l2415.341-1604.181m0 0l2449.659 1588.181M5627.564 8773.288l2493.312-1704.471m-40 80l-21.45-2520.894m-4942 53l-15.363 2495.012" fill="none" stroke="#fff" stroke-width="207.226" stroke-linejoin="bevel"/><path d="M3047.857 7103.79l2579.707 1669.498" fill="none" stroke="#fff" stroke-width="204.951" stroke-linejoin="bevel"/><path d="M5571.822 47.361l-1.539 5504.252m0 0l2470.593 1597.204m-4928.22-40l2457.627-1557.204" fill="none" stroke="#fff" stroke-width="207.226" stroke-linejoin="bevel"/></svg>