<?xml version="1.0" encoding="UTF-8" standalone="no"?>
<svg
   xmlns:dc="http://purl.org/dc/elements/1.1/"
   xmlns:cc="http://creativecommons.org/ns#"
   xmlns:rdf="http://www.w3.org/1999/02/22-rdf-syntax-ns#"
   xmlns:svg="http://www.w3.org/2000/svg"
   xmlns="http://www.w3.org/2000/svg"
   xmlns:sodipodi="http://sodipodi.sourceforge.net/DTD/sodipodi-0.dtd"
   xmlns:inkscape="http://www.inkscape.org/namespaces/inkscape"
   version="1.0"
   width="1123"
   height="1121"
   viewBox="0 0 11230 11210"
   preserveAspectRatio="xMidYMid meet"
   id="svg2507"
   sodipodi:docname="logo.svg"
   inkscape:version="0.92.3 (2405546, 2018-03-11)"
   inkscape:export-filename="/home/peters/Work/website/website/src/images/favicon-32x32.png"
   inkscape:export-xdpi="2.7355299"
   inkscape:export-ydpi="2.7355299">
  <metadata
     id="metadata2513">
    <rdf:RDF>
      <cc:Work
         rdf:about="">
        <dc:format>image/svg+xml</dc:format>
        <dc:type
           rdf:resource="http://purl.org/dc/dcmitype/StillImage" />
        <dc:title></dc:title>
      </cc:Work>
    </rdf:RDF>
  </metadata>
  <defs
     id="defs2511" />
  <sodipodi:namedview
     pagecolor="#ffffff"
     bordercolor="#666666"
     borderopacity="1"
     objecttolerance="10"
     gridtolerance="10"
     guidetolerance="10"
     inkscape:pageopacity="0"
     inkscape:pageshadow="2"
     inkscape:window-width="2880"
     inkscape:window-height="1736"
     id="namedview2509"
     showgrid="false"
     inkscape:zoom="0.944"
     inkscape:cx="510.78305"
     inkscape:cy="594.64937"
     inkscape:window-x="0"
     inkscape:window-y="32"
     inkscape:window-maximized="1"
     inkscape:current-layer="svg2507"
     inkscape:pagecheckerboard="true" />
  <path
     style="fill:#aaaaff;fill-opacity:1;stroke:none;stroke-width:2.10415244"
     inkscape:connector-curvature="0"
     id="path2490-7"
     d="m 5506.0123,11076.799 c -39.0989,-25.818 -123.4703,-83.908 -187.2632,-126.939 -65.8507,-43.03 -168.7426,-111.878 -226.3617,-152.757 -261.3452,-174.273 -413.625,-275.394 -654.3916,-432.454 -141.9908,-94.667 -366.2948,-243.121 -497.9964,-331.333 C 3590.1677,9796.6485 2592.1175,9136.1339 2388.3917,9004.892 2293.7314,8942.4982 2118.8154,8826.3164 1999.4608,8746.7104 1882.1641,8664.953 1723.711,8559.529 1645.513,8507.8928 1044.6253,8116.3175 867.6515,7993.6814 867.6515,7967.8633 c 0,-27.9698 127.5858,-120.4847 730.5314,-520.6662 164.627,-109.7269 386.8731,-258.1811 493.8806,-331.3327 107.0074,-73.1514 265.4608,-178.5757 349.832,-236.6661 84.3713,-55.9396 242.8243,-163.515 349.832,-236.6663 611.177,-419.5451 806.6714,-550.7871 946.6042,-638.9993 84.3711,-53.7878 275.7498,-180.727 421.8563,-283.9993 148.1643,-101.1211 386.873,-264.6362 530.921,-363.6057 146.1067,-96.8181 378.6423,-256.03 520.6328,-354.9994 139.9326,-96.8181 265.4606,-176.424 277.8079,-176.424 10.289,0 109.065,62.3936 220.188,135.545 109.0654,75.303 240.7671,163.5153 292.2127,195.7878 51.446,32.2724 121.4122,79.6058 158.4533,105.4241 37.0412,25.818 111.123,75.3027 164.6269,109.727 183.1473,118.333 384.8152,253.8783 561.789,376.5145 96.7182,68.8484 263.403,178.5757 370.4103,249.5756 107.0074,68.8483 257.2294,165.6662 331.3114,217.3025 129.6438,86.0606 1084.4793,720.7567 1757.3915,1166.1195 170.8003,111.8788 419.7985,275.3937 555.6155,365.7572 374.5257,243.1208 366.2947,210.8482 100.8337,387.272 -475.3598,320.5755 -664.6806,447.5147 -903.3896,608.878 -288.0969,197.9392 -615.2925,417.3934 -1321.1301,888.5745 -279.8656,189.3331 -639.9867,432.456 -798.4401,540.031 -158.4532,109.727 -473.3023,322.726 -699.664,477.634 -368.3527,249.576 -617.3508,419.545 -681.1435,462.576 -12.3469,8.606 -53.5037,-6.454 -92.6024,-34.424 z" />
  <path
     style="fill:#aaaaff;fill-opacity:1;stroke:none;stroke-width:2.1013701"
     inkscape:connector-curvature="0"
     id="path2493-5"
     d="m 9881.4143,7664.7388 c -426.299,-274.7034 -752.2922,-486.0137 -1034.402,-669.8537 -62.6912,-42.2621 -148.369,-95.0895 -188.0732,-120.4468 -96.1264,-61.2799 -488.9904,-316.9653 -936.1865,-608.5738 -198.5217,-131.0123 -434.658,-283.1557 -528.6947,-342.3228 -91.9467,-57.0538 -219.4185,-141.5779 -286.2891,-183.8399 -64.7806,-42.262 -165.0862,-107.7682 -223.598,-143.6911 -56.4219,-35.9224 -144.1895,-90.8633 -192.2527,-122.5597 -48.063,-31.6967 -261.2124,-169.0483 -472.2723,-304.2869 l -384.5054,-249.3463 -12.5381,-2339.2051 c -8.3588,-1286.8796 -8.3588,-2345.54452 2.0897,-2356.11002 8.3589,-8.4524 137.9201,63.3931 286.2891,162.70898 150.4587,97.20288 300.9171,194.40565 334.3522,213.42359 35.5251,19.01787 179.7145,114.10749 323.9038,209.19713 144.1894,95.08965 334.3526,217.64962 424.2096,276.81652 89.8572,57.0538 246.5848,156.3697 344.8007,221.8759 633.1797,412.0551 996.7879,648.7227 1055.2996,682.5323 37.6145,23.2442 160.9071,103.5421 275.8407,177.5007 248.6743,162.7087 307.1859,198.6315 511.9767,329.6439 85.6779,54.9406 386.5949,249.346 668.7049,431.0731 l 511.9767,331.7571 6.269,2334.9788 c 2.089,1282.6538 -2.089,2339.2052 -10.449,2347.6577 -10.448,10.5656 -223.598,-116.2206 -476.4517,-278.9296 z" />
  <path
     style="fill:none;stroke:#ffffff;stroke-width:207.22579956;stroke-linecap:butt;stroke-linejoin:bevel;stroke-miterlimit:4;stroke-dasharray:none;stroke-opacity:1"
     d="M 5465.3835,4895.8921 10393.869,8041.4026"
     id="path3145-3-2-06"
     inkscape:connector-curvature="0"
     sodipodi:nodetypes="cc" />
  <path
     style="fill:#aaaaff;fill-opacity:1;stroke:none;stroke-width:2.09355044"
     inkscape:connector-curvature="0"
     id="path2502-9"
     d="m 798.1456,7912.6137 c -8.3047,-6.3333 -14.5332,-1061.8691 -14.5332,-2341.1788 V 3242.923 l 265.7502,-177.33 c 276.131,-183.6632 1150.2001,-751.5414 1442.9405,-935.2047 93.4277,-59.11 325.9593,-211.1072 516.9673,-337.7715 191.0079,-126.6643 450.5297,-295.55 575.1001,-377.8818 126.6466,-80.2208 330.1115,-213.2183 452.6057,-293.4391 124.5704,-78.1097 257.4456,-164.66361 296.8927,-189.99646 128.7229,-82.3318 294.8167,-192.10755 570.9478,-373.65971 440.149,-291.32785 529.4241,-344.10485 550.186,-322.99415 14.533,14.7776 18.6855,865.53962 16.6094,2341.17872 l -6.2286,2320.0678 -155.713,103.4424 c -85.1229,59.1101 -201.3889,135.1087 -259.5218,173.1079 -56.0565,35.8882 -261.5979,170.9971 -456.7581,299.7723 -305.1973,200.552 -1139.8193,740.986 -1469.9308,952.0934 -58.1328,37.9993 -176.4748,113.9977 -259.5217,168.8858 -80.9708,54.8877 -479.5961,312.4384 -882.3735,572.1004 -400.7015,261.773 -786.8699,512.9904 -855.3836,561.5451 -176.4748,126.6642 -313.5022,202.6628 -328.0354,185.7743 z" />
  <path
     style="fill:none;stroke:#ffffff;stroke-width:207.22579956;stroke-linecap:butt;stroke-linejoin:bevel;stroke-miterlimit:4;stroke-dasharray:none;stroke-opacity:1"
     d="M 798.1456,7912.6137 5635.1404,4919.8178"
     id="path3145-3-2-6"
     inkscape:connector-curvature="0"
     sodipodi:nodetypes="cc" />
  <g
     id="layer1"
     transform="translate(3618.8665,1952.55)"
     style="fill:#ffffff;stroke:none" />
  <path
     style="fill:#a94df7;stroke:none"
     inkscape:connector-curvature="0"
     id="path2486"
     d="m 5436.4259,11006.924 c -15,-12 -56,-40 -93,-62 -37,-22 -110,-68 -164,-103 -53,-35 -169,-109 -257,-164 -201,-127 -203,-128 -365,-234 -150,-98 -396,-255 -653,-417 -53,-34 -174,-111.001 -268,-172.001 -94,-60 -228,-146 -297,-190 l -127,-81 -3,-1104 c -1,-607 1,-1107 6,-1112 4,-4 78,38 164,95 87,56 183,118 215,138 153,96 508,321 588,374 252,165 368,239 625,400 187,117 181,114 400,257 96,62 199,129 228,147 l 52,33 -2,1106 c -2,726.001 -6,1106.001 -13,1108.001 -5,2 -22,-7 -36,-19 z" />
  <path
     style="fill:#a94df7;stroke:none"
     inkscape:connector-curvature="0"
     id="path2488"
     d="m 5653.4259,11022.924 c -3,-4 -6,-502 -6,-1108.001 v -1102 l 128,-83 c 282,-184 402,-262 752,-484 201,-127 385,-245 410,-262 25,-17 207,-134 405,-259 198,-125 404,-257 457,-292 53,-36 102,-62 107,-58 8,4 11,342 11,1108 v 1102 l -82,55 c -46,30 -247,159 -448,287 -332,211.001 -437,278.001 -825,528.001 -138,89 -266,171 -460,294 -71,45 -188,121 -260,167 -154,100 -180,115 -189,107 z" />
  <path
     style="fill:#a94df7;stroke:none;stroke-width:1.01968074"
     inkscape:connector-curvature="0"
     id="path2490"
     d="m 5554.4798,8639.6412 c -19.2665,-12.3044 -60.8416,-39.9894 -92.2763,-60.4967 -32.4489,-20.5074 -83.1501,-53.3191 -111.5428,-72.8011 -128.7813,-83.0548 -203.8191,-131.2471 -322.4601,-206.0989 -69.9678,-45.1162 -180.4965,-115.8665 -245.3941,-157.9066 -172.3844,-112.7904 -664.1867,-427.5783 -764.5752,-490.1257 -46.6451,-29.7357 -132.8373,-85.1055 -191.6508,-123.0441 -57.7994,-38.964 -135.8794,-89.207 -174.4123,-113.8158 -296.0954,-186.6169 -383.3016,-245.0629 -383.3016,-257.3673 0,-13.3298 62.8696,-57.4206 359.979,-248.1389 81.122,-52.2938 190.6368,-123.0441 243.3661,-157.9066 52.7293,-34.8625 130.8092,-85.1055 172.3843,-112.7905 41.575,-26.6595 119.655,-77.9279 172.3843,-112.7904 301.1655,-199.9467 397.4979,-262.4941 466.4517,-304.5342 41.575,-25.6342 135.8794,-86.1308 207.8752,-135.3485 73.0098,-48.1923 190.6367,-126.1202 261.6185,-173.2871 71.9958,-46.1415 186.5807,-122.0188 256.5484,-169.1857 68.9538,-46.1415 130.8093,-84.0801 136.8935,-84.0801 5.0701,0 53.7433,29.7357 108.5007,64.5982 53.7433,35.8878 118.641,77.9279 143.9916,93.3084 25.3506,15.3805 59.8275,37.9386 78.0799,50.243 18.2525,12.3044 54.7574,35.8879 81.1221,52.2938 90.2482,56.3952 189.6227,120.9933 276.8289,179.4393 47.6592,32.8118 129.7952,85.1055 182.5246,118.9426 52.7293,32.8118 126.7531,78.9533 163.258,103.5622 63.8836,41.0147 534.3914,343.4981 865.9777,555.7492 84.1641,53.3191 206.8612,131.247 273.7869,174.3125 184.5526,115.8665 180.4965,100.486 49.6872,184.5661 -234.2399,152.7798 -327.5302,213.2765 -445.1571,290.1791 -141.9636,94.3338 -303.1936,198.9213 -651.0043,423.4768 -137.9075,90.2323 -315.3619,206.0988 -393.4419,257.3672 -78.0799,52.2938 -233.2258,153.8052 -344.7686,227.6316 -181.5105,118.9427 -304.2076,199.9467 -335.6424,220.4541 -6.0841,4.1014 -26.3646,-3.0761 -45.6311,-16.4059 z" />
  <path
     style="fill:#ef27d5;stroke:none;stroke-width:1.0289408"
     inkscape:connector-curvature="0"
     id="path2493"
     d="m 7774.5268,6889.7616 c -213.5026,-131.5077 -376.7694,-232.6674 -518.0578,-320.6764 -31.3974,-20.2319 -74.3072,-45.5219 -94.1922,-57.661 -48.1428,-29.3364 -244.9002,-151.7397 -468.8684,-291.3401 -99.4252,-62.7191 -217.689,-135.5541 -264.7852,-163.8788 -46.0495,-27.3132 -109.891,-67.7771 -143.3816,-88.009 -32.444,-20.232 -82.6798,-51.5915 -111.9842,-68.7887 -28.2576,-17.1971 -72.214,-43.4987 -96.2854,-58.6726 -24.0714,-15.174 -130.8226,-80.9278 -236.5274,-145.6701 l -192.571,-119.3685 -6.2794,-1119.8384 c -4.1864,-616.0629 -4.1864,-1122.8733 1.0466,-1127.9313 4.1864,-4.0464 69.0744,30.3479 143.3816,77.893 75.3538,46.5335 150.7078,93.067 167.453,102.1714 17.7918,9.1043 90.006,54.6262 162.22,100.1481 72.2142,45.5219 167.453,104.1946 212.456,132.5193 45.003,27.3131 123.4966,74.8582 172.686,106.2177 317.114,197.2616 499.2192,310.5605 528.5234,326.746 18.8386,11.1276 80.5868,49.5683 138.1488,84.9742 124.5432,77.893 153.8474,95.0902 256.4124,157.8093 42.9098,26.3015 193.6176,119.3685 334.906,206.3659 l 256.4124,158.8208 3.1398,1117.8152 c 1.0466,614.0397 -1.0466,1119.8385 -5.233,1123.8849 -5.2328,5.058 -111.9842,-55.6379 -238.6204,-133.5309 z" />
  <path
     style="fill:#ef27d5;stroke:none"
     inkscape:connector-curvature="0"
     id="path2495"
     d="m 8134.4259,6982.923 c -4,-3 -7,-503 -7,-1110 v -1103 l 149,-97 c 83,-54 185,-120 228,-148 43,-27 141,-89 218,-138 77,-49 183,-116 235,-150 52,-33 148,-94 212,-136 169,-110 668.0004,-429 776.0004,-495 26,-16 123.9997,-80 216.9997,-141 202,-133 214,-140 226,-128 5,5 8,469 7,1109 l -3,1099 -75,50 c -41,28 -181,118 -310,200 -128.9997,81 -278.0001,176 -330.0001,210 -52,34 -113,72 -135,85 -22,13 -106,67 -187,120 -81,52 -210,136 -287,185 -78,50 -190,122 -250,160 -59,39 -127,81 -150,95 -23,14 -90,57 -149,95 -59,39 -159,103 -222,143 -63,41 -124,80 -136,88 -11,8 -24,11 -27,7 z" />
  <path
     style="fill:#ef27d5;stroke:none"
     inkscape:connector-curvature="0"
     id="path2497"
     d="m 8025.4259,4604.923 c -18,-13 -82,-54 -143,-92 -205,-129 -419,-266 -545,-348 -69,-44 -147,-94 -175,-110 -27,-15 -108,-67 -180,-113 -147,-96 -134,-88 -505,-324 -151,-96 -288,-183 -305,-192 -16,-9 -49,-29 -72,-44 -23,-15 -102,-65 -175,-111 -196,-124 -191,-104 -46,-195 68,-43 175,-112 238,-153 63,-41 174,-113 245,-159 72,-45 218,-140 325,-209 107,-70 330,-214 495,-320 339,-218 511,-330 702,-456 l 131,-88 126,82 c 69,45 147,95 174,111 26,17 83,53 127,81 44,29 242,155 440,280 198,126 457,290 575,365 227,144 652.0001,413 783.0001,495 42,27 77,52 77,56 0,4 -24,22 -52,40 -29,18 -105,67 -168,108 -63,41 -146.9997,95 -186.9997,120 -207.0004,133 -291.0004,187 -423.0004,273 -147,96 -230,149 -454,293 -69,44 -201,130 -294,190 -93,61 -235,153 -316,205 -80,52 -195,127 -255,166 l -109,72 z" />
  <path
     style="fill:#50dae6;stroke:none"
     inkscape:connector-curvature="0"
     id="path2500"
     d="m 2907.4259,6910.923 c -232,-152 -368,-239 -390,-251 -14,-7 -81,-50 -150,-95 -69,-45 -146,-95 -172,-111 -27,-16 -90,-56 -141,-89 -92,-60 -221,-143 -372,-240 -44,-29 -140,-90 -213,-136 -72,-46 -158,-101 -190,-121 -31,-21 -73,-47 -92,-58 -59,-34 -403,-257 -433,-280 l -26.99997,-22 2,-1100 c 2,-736 6,-1102 13,-1105 5.99997,-2 73.99997,39 151.99997,89 265,173 358,233 418,268 33,20 98,61 145,92 47,30 207,133 355,228 149,95 316,203 372,239 56,36 128,82 159,101 32,19 90,56 128,81 39,26 161,104 271,174 110,70 215,138 233,151 l 32,25 -2,1101 c -2,741 -6,1102 -13,1105 -6,2 -44,-19 -85,-46 z" />
  <path
     style="fill:#50dae6;stroke:none;stroke-width:1.01165926"
     inkscape:connector-curvature="0"
     id="path2502"
     d="m 3184.5901,6952.923 c -4.0938,-3 -7.1642,-503 -7.1642,-1109 v -1103 l 131.0022,-84 c 136.1194,-87 566.9938,-356 711.3009,-443 46.0555,-28 160.6824,-100 254.8402,-160 94.1578,-60 222.0897,-140 283.4969,-179 62.4308,-38 162.7293,-101 223.1131,-139 61.4073,-37 126.9084,-78 146.354,-90 63.4542,-39 145.3306,-91 281.45,-177 216.9724,-138 260.981,-163 271.2155,-153 7.1642,7 9.2111,410 8.1876,1109 l -3.0703,1099 -76.7591,49 c -41.9617,28 -99.2751,64 -127.9318,82 -27.6333,17 -128.9553,81 -225.16,142 -150.4479,95 -561.8766,351 -724.6059,451 -28.6567,18 -86.9936,54 -127.9318,80 -39.9147,26 -236.418,148 -434.9682,271 -197.5267,124 -387.8893,243 -421.6633,266 -86.9936,60 -154.5416,96 -161.7058,88 z" />
  <path
     style="fill:#50dae6;stroke:none"
     inkscape:connector-curvature="0"
     id="path2504"
     d="m 2976.4259,4520.923 c -64,-42 -149,-97 -190,-121 -61,-36 -200,-125 -399,-255 -19,-13 -84,-54 -145,-91 -60,-37 -166,-103 -235,-148 -69,-45 -150,-97 -180,-116 -30,-18 -80,-49 -110,-69 -30,-20 -163,-104 -295,-187 -216,-137 -434,-276 -562,-359 -26,-16 -48,-35 -50,-41 -2,-6 52,-45 119,-87 68,-43 188,-120 268,-171 80,-52 201,-131 270,-174 69,-44 204,-131 300,-194 178,-116 511,-331 623,-402 34,-22 139,-90 232,-151 354,-232 422,-275 437,-275 8,0 43,19 79,43 35,24 98,63 139,87 41,24 91,56 110,70 19,15 91,62 160,104 69,43 215,136 325,206 110,71 248,159 308,195 59,36 164,103 235,149 70,45 195,125 277,176 83,52 206,130 275,175 69,45 157,101 195,124 140,85 187,116 189,126 1,12 -104,83 -434,293 -52,33 -147,94 -210,135 -63,41 -200,130 -305,197 -104,68 -242,157 -305,198 -63,42 -149,96 -190,122 -90,55 -425,274 -460,300 -14,11 -45,31 -70,46 -25,15 -88,55 -140,89 -91,60 -135,86 -142,84 -2,0 -55,-35 -119,-78 z" />
  <g
     inkscape:groupmode="layer"
     id="layer3"
     inkscape:label="cubes"
     transform="translate(-1670.0317,1306.3637)" />
  <path
     style="fill:none;stroke:#ffffff;stroke-width:200.88040161;stroke-linecap:butt;stroke-linejoin:bevel;stroke-miterlimit:4;stroke-dasharray:none;stroke-opacity:1"
     d="M 799.2803,3209.6667 5587.887,6272.886"
     id="path3145"
     inkscape:connector-curvature="0"
     sodipodi:nodetypes="cc" />
  <path
     style="fill:none;stroke:#ffffff;stroke-width:202.97595215;stroke-linecap:butt;stroke-linejoin:bevel;stroke-miterlimit:4;stroke-dasharray:none;stroke-opacity:1"
     d="M 5587.887,6272.886 10357.328,3239.6631"
     id="path3145-2"
     inkscape:connector-curvature="0"
     sodipodi:nodetypes="cc" />
  <path
     style="fill:none;stroke:#ffffff;stroke-width:195.98977661;stroke-linecap:butt;stroke-linejoin:bevel;stroke-miterlimit:4;stroke-dasharray:none;stroke-opacity:1"
     d="m 5589.5348,11058.926 -1.9611,-4860.3672"
     id="path3145-2-2"
     inkscape:connector-curvature="0"
     sodipodi:nodetypes="cc" />
  <path
     style="fill:none;stroke:#ffffff;stroke-width:207.22579956;stroke-linecap:butt;stroke-linejoin:bevel;stroke-miterlimit:4;stroke-dasharray:none;stroke-opacity:1"
     d="M 5531.8223,67.361127 10397.328,3279.6631"
     id="path3145-3"
     inkscape:connector-curvature="0"
     sodipodi:nodetypes="cc" />
  <path
     style="fill:none;stroke:#ffffff;stroke-width:207.22579956;stroke-linecap:butt;stroke-linejoin:bevel;stroke-miterlimit:4;stroke-dasharray:none;stroke-opacity:1"
     d="M 751.93,7838.2034 5673.4259,11102.924"
     id="path3145-3-6"
     inkscape:connector-curvature="0"
     sodipodi:nodetypes="cc" />
  <path
     style="fill:none;stroke:#ffffff;stroke-width:207.22579956;stroke-linecap:butt;stroke-linejoin:bevel;stroke-miterlimit:4;stroke-dasharray:none;stroke-opacity:1"
     d="m 783.6124,3222.923 14.5332,4689.6907"
     id="path3145-3-7"
     inkscape:connector-curvature="0"
     sodipodi:nodetypes="cc" />
  <path
     style="fill:none;stroke:#ffffff;stroke-width:207.22579956;stroke-linecap:butt;stroke-linejoin:bevel;stroke-miterlimit:4;stroke-dasharray:none;stroke-opacity:1"
     d="M 742.42593,3302.923 5631.8223,67.361127"
     id="path3145-3-5"
     inkscape:connector-curvature="0"
     sodipodi:nodetypes="cc" />
  <path
     style="fill:none;stroke:#ffffff;stroke-width:207.22579956;stroke-linecap:butt;stroke-linejoin:bevel;stroke-miterlimit:4;stroke-dasharray:none;stroke-opacity:1"
     d="m 10357.328,3199.6631 16.541,4881.7395"
     id="path3145-3-3"
     inkscape:connector-curvature="0"
     sodipodi:nodetypes="cc" />
  <path
     style="fill:none;stroke:#ffffff;stroke-width:207.22579956;stroke-linecap:butt;stroke-linejoin:bevel;stroke-miterlimit:4;stroke-dasharray:none;stroke-opacity:1"
     d="M 5573.4259,11122.924 10413.869,8001.4026"
     id="path3145-3-56"
     inkscape:connector-curvature="0"
     sodipodi:nodetypes="cc" />
  <path
     style="fill:none;stroke:#ffffff;stroke-width:207.22579956;stroke-linecap:butt;stroke-linejoin:bevel;stroke-miterlimit:4;stroke-dasharray:none;stroke-opacity:1"
     d="M 3137.4259,4740.923 5552.7672,3136.7415"
     id="path3145-3-2"
     inkscape:connector-curvature="0"
     sodipodi:nodetypes="cc" />
  <path
     style="fill:none;stroke:#ffffff;stroke-width:207.22579956;stroke-linecap:butt;stroke-linejoin:bevel;stroke-miterlimit:4;stroke-dasharray:none;stroke-opacity:1"
     d="M 5552.7672,3136.7415 8002.4259,4724.923"
     id="path3145-3-2-9"
     inkscape:connector-curvature="0"
     sodipodi:nodetypes="cc" />
  <path
     style="fill:none;stroke:#ffffff;stroke-width:207.22579956;stroke-linecap:butt;stroke-linejoin:bevel;stroke-miterlimit:4;stroke-dasharray:none;stroke-opacity:1"
     d="M 5627.5637,8773.2876 8120.8763,7068.8166"
     id="path3145-3-2-1"
     inkscape:connector-curvature="0"
     sodipodi:nodetypes="cc" />
  <path
     style="fill:none;stroke:#ffffff;stroke-width:207.22579956;stroke-linecap:butt;stroke-linejoin:bevel;stroke-miterlimit:4;stroke-dasharray:none;stroke-opacity:1"
     d="M 8080.8763,7148.8166 8059.4259,4627.923"
     id="path3145-3-2-2"
     inkscape:connector-curvature="0"
     sodipodi:nodetypes="cc" />
  <path
     style="fill:none;stroke:#ffffff;stroke-width:207.22579956;stroke-linecap:butt;stroke-linejoin:bevel;stroke-miterlimit:4;stroke-dasharray:none;stroke-opacity:1"
     d="m 3117.4259,4680.923 -15.3633,2495.0122"
     id="path3145-3-2-7"
     inkscape:connector-curvature="0"
     sodipodi:nodetypes="cc" />
  <path
     style="fill:none;stroke:#ffffff;stroke-width:204.95120239;stroke-linecap:butt;stroke-linejoin:bevel;stroke-miterlimit:4;stroke-dasharray:none;stroke-opacity:1"
     d="M 3047.857,7103.7909 5627.5637,8773.2876"
     id="path3145-3-2-0"
     inkscape:connector-curvature="0"
     sodipodi:nodetypes="cc" />
  <path
     style="fill:none;stroke:#ffffff;stroke-width:207.22579956;stroke-linecap:butt;stroke-linejoin:bevel;stroke-miterlimit:4;stroke-dasharray:none;stroke-opacity:1"
     d="M 5571.8223,47.361132 5570.283,5551.6131"
     id="path3145-3-2-93"
     inkscape:connector-curvature="0"
     sodipodi:nodetypes="cc" />
  <path
     style="fill:none;stroke:#ffffff;stroke-width:207.22579956;stroke-linecap:butt;stroke-linejoin:bevel;stroke-miterlimit:4;stroke-dasharray:none;stroke-opacity:1"
     d="M 5570.283,5551.6131 8040.8763,7148.8166"
     id="path3145-3-2-26"
     inkscape:connector-curvature="0"
     sodipodi:nodetypes="cc" />
  <path
     style="fill:none;stroke:#ffffff;stroke-width:207.22579956;stroke-linecap:butt;stroke-linejoin:bevel;stroke-miterlimit:4;stroke-dasharray:none;stroke-opacity:1"
     d="M 3112.6558,7108.8166 5570.283,5551.6131"
     id="path3145-3-2-1-1"
     inkscape:connector-curvature="0"
     sodipodi:nodetypes="cc" />
</svg>
