<svg version="1.1" id="Layer_1" xmlns="http://www.w3.org/2000/svg" x="0" y="0" viewBox="0 0 125.5 31.3" xml:space="preserve"><style>.st0{fill:#000}</style><path class="st0" d="M22.2 15.7l8.8 8.8-6.2 6.2-15-15 15-15L31 6.9z"/><path fill="#ff6d00" d="M22.2 15.7l-15 15L1 24.5l8.8-8.8L1 6.9 7.2.7z"/><path class="st0" d="M50.2 8.8c-1.1 0-2.1.2-2.9.5-.8.3-1.4.7-1.9 1.3V9h-3.5v14.7h3.6v-7.4c0-1.4.4-2.4 1-3.1.7-.7 1.7-1.1 2.9-1.1 1.1 0 1.9.3 2.4.9.6.6.9 1.5.9 2.8v8h3.6v-8.4c0-2.1-.6-3.7-1.7-4.8-1.1-1.2-2.6-1.8-4.4-1.8zm9.5.2h3.6v14.7h-3.6zm3.4-5.8c-.4-.4-1-.6-1.6-.6-.6 0-1.2.2-1.6.6-.4.4-.7.9-.7 1.5s.2 1.1.7 1.5c.4.4 1 .6 1.6.6.7 0 1.2-.2 1.6-.6.4-.4.6-1 .6-1.6.1-.6-.1-1.1-.6-1.4zm12.1 5.6c-1.1 0-2.1.2-2.9.5-.8.3-1.4.7-1.9 1.3V9h-3.5v14.7h3.6v-7.4c0-1.4.4-2.4 1-3.1.7-.7 1.7-1.1 2.9-1.1 1.1 0 1.9.3 2.4.9.6.6.9 1.5.9 2.8v8h3.6v-8.4c0-2.1-.6-3.7-1.7-4.8-1.1-1.2-2.6-1.8-4.4-1.8zm17.3 11.5c-.5.4-1.1.6-1.8.6-.6 0-1.1-.2-1.4-.5-.3-.3-.5-.9-.5-1.5V12h3.9V9.1h-3.9V5.8h-3.6v3.3h-2.4V12h2.4v6.8c0 1.6.4 2.9 1.3 3.7.9.8 2.1 1.3 3.8 1.3.6 0 1.3-.1 1.8-.2.6-.2 1.1-.4 1.5-.8l.1-.1-1-2.6-.2.2zm15.6-7.9c-.6-1.1-1.5-2-2.6-2.7-1.1-.6-2.4-.9-3.8-.9s-2.7.3-3.9 1c-1.1.6-2.1 1.5-2.7 2.7-.6 1.1-1 2.4-1 3.9 0 1.4.3 2.7 1 3.9.7 1.1 1.6 2 2.8 2.7 1.2.6 2.6 1 4.2 1 1.3 0 2.4-.2 3.4-.6 1-.4 1.8-1 2.5-1.8l.1-.1-2-2.3-.1.1c-1 1-2.3 1.5-3.8 1.5-1.2 0-2.2-.3-3-.9-.8-.6-1.3-1.3-1.5-2.3H109v-.1c0-.4.1-.8.1-1 0-1.6-.4-2.9-1-4.1zm-9.1.3c.7-.6 1.6-.9 2.7-.9s2 .3 2.7.9c.7.6 1.1 1.4 1.3 2.3h-7.9c.1-.9.5-1.7 1.2-2.3zm19.7 3.5l5.5-7.2h-3.9l-3.5 4.6-3.5-4.6h-4l5.4 7.2-5.7 7.5h4.1l3.6-5 3.7 5h4.1z"/></svg>