<?xml version="1.0" encoding="utf-8"?>
<!-- Generator: Adobe Illustrator 22.0.1, SVG Export Plug-In . SVG Version: 6.00 Build 0)  -->
<svg version="1.1" id="Layer_1" xmlns="http://www.w3.org/2000/svg" xmlns:xlink="http://www.w3.org/1999/xlink" x="0px" y="0px"
	 viewBox="0 0 125.5 31.3" style="enable-background:new 0 0 125.5 31.3;" xml:space="preserve">
<style type="text/css">
	.st0{fill:#000000;}
	.st1{fill:#FF6D00;}
</style>
<g>
	<g>
		<polygon class="st0" points="22.2,15.7 31,24.5 24.8,30.7 9.8,15.7 24.8,0.7 31,6.9 		"/>
		<polygon class="st1" points="22.2,15.7 7.2,30.7 1,24.5 9.8,15.7 1,6.9 7.2,0.7 		"/>
	</g>
	<g>
		<path class="st0" d="M50.2,8.8c-1.1,0-2.1,0.2-2.9,0.5c-0.8,0.3-1.4,0.7-1.9,1.3V9h-3.5v14.7h3.6v-7.4c0-1.4,0.4-2.4,1-3.1
			c0.7-0.7,1.7-1.1,2.9-1.1c1.1,0,1.9,0.3,2.4,0.9c0.6,0.6,0.9,1.5,0.9,2.8v8h3.6v-8.4c0-2.1-0.6-3.7-1.7-4.8
			C53.5,9.4,52,8.8,50.2,8.8z"/>
		<rect x="59.7" y="9" class="st0" width="3.6" height="14.7"/>
		<path class="st0" d="M63.1,3.2c-0.4-0.4-1-0.6-1.6-0.6c-0.6,0-1.2,0.2-1.6,0.6c-0.4,0.4-0.7,0.9-0.7,1.5c0,0.6,0.2,1.1,0.7,1.5
			c0.4,0.4,1,0.6,1.6,0.6c0.7,0,1.2-0.2,1.6-0.6c0.4-0.4,0.6-1,0.6-1.6C63.8,4,63.6,3.5,63.1,3.2z"/>
		<path class="st0" d="M75.2,8.8c-1.1,0-2.1,0.2-2.9,0.5c-0.8,0.3-1.4,0.7-1.9,1.3V9h-3.5v14.7h3.6v-7.4c0-1.4,0.4-2.4,1-3.1
			c0.7-0.7,1.7-1.1,2.9-1.1c1.1,0,1.9,0.3,2.4,0.9c0.6,0.6,0.9,1.5,0.9,2.8v8h3.6v-8.4c0-2.1-0.6-3.7-1.7-4.8
			C78.5,9.4,77,8.8,75.2,8.8z"/>
		<path class="st0" d="M92.5,20.3c-0.5,0.4-1.1,0.6-1.8,0.6c-0.6,0-1.1-0.2-1.4-0.5c-0.3-0.3-0.5-0.9-0.5-1.5V12h3.9V9.1h-3.9V5.8
			h-3.6v3.3h-2.4V12h2.4v6.8c0,1.6,0.4,2.9,1.3,3.7c0.9,0.8,2.1,1.3,3.8,1.3c0.6,0,1.3-0.1,1.8-0.2c0.6-0.2,1.1-0.4,1.5-0.8l0.1-0.1
			l-1-2.6L92.5,20.3z"/>
		<path class="st0" d="M108.1,12.4c-0.6-1.1-1.5-2-2.6-2.7c-1.1-0.6-2.4-0.9-3.8-0.9c-1.4,0-2.7,0.3-3.9,1c-1.1,0.6-2.1,1.5-2.7,2.7
			c-0.6,1.1-1,2.4-1,3.9c0,1.4,0.3,2.7,1,3.9c0.7,1.1,1.6,2,2.8,2.7c1.2,0.6,2.6,1,4.2,1c1.3,0,2.4-0.2,3.4-0.6c1-0.4,1.8-1,2.5-1.8
			l0.1-0.1l-2-2.3l-0.1,0.1c-1,1-2.3,1.5-3.8,1.5c-1.2,0-2.2-0.3-3-0.9c-0.8-0.6-1.3-1.3-1.5-2.3H109l0-0.1c0-0.4,0.1-0.8,0.1-1
			C109.1,14.9,108.7,13.6,108.1,12.4z M99,12.7c0.7-0.6,1.6-0.9,2.7-0.9c1.1,0,2,0.3,2.7,0.9c0.7,0.6,1.1,1.4,1.3,2.3h-7.9
			C97.9,14.1,98.3,13.3,99,12.7z"/>
		<polygon class="st0" points="118.7,16.2 124.2,9 120.3,9 116.8,13.6 113.3,9 109.3,9 114.7,16.2 109,23.7 113.1,23.7 116.7,18.7 
			120.4,23.7 124.5,23.7 		"/>
	</g>
</g>
</svg>
