<svg width="2108" height="632pt" viewBox="0 0 1581 632" xmlns="http://www.w3.org/2000/svg"><path fill="#fffeff" d="M0 0h1581v632H0V0z"/><path fill="#c9c9ca" d="M1246.68 35.71c7.95-5.71 16.73-10.2 24.42-16.26 16.02 10.53 32.33 20.56 48.48 30.87 9.55 6.02 19 12.21 28.66 18.07-2.77 2.66-6.24 4.34-9.4 6.43-21.99 14.29-44.21 28.2-65.92 42.88-25.54-16.64-51.57-32.55-77.03-49.28 16.91-10.92 33.81-21.88 50.79-32.71z"/><path fill="#747173" d="M1285.57 52.49c1.9-1.33 3.54.72 3.52 2.54 1.1 6.66 2.08 13.36 2.95 20.06-.16.51-.49 1.54-.65 2.05-3.65-.18-7.66.57-10.92-1.41-2.75-1.48-3.59-5.27-2.52-8.04 1.55-3.43 5.18-4.9 8.38-6.38-.38-2.92-1.25-5.86-.76-8.82z"/><path fill="#c9c9ca" d="M242.69 63.8c4.17-2.7 8.49-5.15 12.51-8.08 7.77 4.46 15.24 9.39 22.7 14.33 18.11 11.28 36.04 22.83 54.11 34.16-.53 2.2-3.23 2.66-4.83 3.92-13.87 9.19-28.11 17.83-41.93 27.11-5.67 3.21-11.1 6.84-16.38 10.65-3.84 2.81-8.14 4.88-11.96 7.7-17.72-11.49-35.72-22.56-53.45-34.05-7.86-5.08-15.98-9.77-23.63-15.16 13.49-8.26 26.52-17.25 39.98-25.55 7.5-5.2 15.54-9.59 22.88-15.03z"/><path fill="#747173" d="M1244.84 61.98c3.38-2.62 9.85-.67 9.78 4.07-2.21 2.97-6.36 3.05-9.67 3.84 1 1.26 1.99 3.29 3.99 2.83 2.26-.67 4.4-1.72 6.67-2.44-.2 5.34-7.47 7.63-11.22 4.33-3.62-3.1-4.03-10.09.45-12.63zm13.01-1.38c4.91-.84 4.78 4.85 4.57 8.19 1.66.36 1.49-1.96 2.19-2.94.95-2.28 3.47-5.28 6.18-3.7 3.38 2.88 4.65 7.74 4.37 12.05-.59.16-1.75.49-2.33.65-1.25-3.11-1.58-6.64-3.8-9.29-2.59 3.49-3.83 7.71-6.07 11.39-1.62.29-2.51-.34-2.68-1.89-.73-4.83-1.5-9.66-2.43-14.46z"/><path fill="#c9c9ca" d="M1244.96 66.52c1.67-1.78 3.87-2.82 6.38-2.17-1.67 1.74-4.18 1.8-6.38 2.17zm36.2 4.39c-.46-3.44 3.31-4.74 5.89-5.67.35 2.6.64 5.21.85 7.83-2.38.29-5.97.92-6.74-2.16zM1318.03 94c10.98-6.77 21.74-13.9 32.64-20.82.14 24.83.11 49.67.01 74.51-.99.75-1.97 1.51-2.92 2.26-3.98-2.36-7.91-4.78-11.84-7.19 1.06-2.1 2.15-4.19 3.23-6.28-6.24-.14-12.48-.26-18.72-.25 3.06 5.39 6.07 10.81 9.12 16.22 1.29-1.78 2.5-3.62 3.66-5.5 3.29 1.74 6.51 3.64 9.68 5.62-6.78 5.23-14.34 9.32-21.53 13.92-15.42 10.06-30.92 19.98-46.56 29.7-.17-24.74-.12-49.47-.03-74.21 14.11-9.8 28.99-18.42 43.26-27.98zm-124.21-20.73c16.98 10.57 33.72 21.58 50.68 32.21 8.21 5.6 16.9 10.44 24.99 16.22.13 24.78.02 49.55.05 74.32-9.64-5.79-18.89-12.19-28.57-17.92-15.48-10.75-32.09-19.81-47.35-30.86.27-24.66-.16-49.32.2-73.97z"/><path fill="#747173" d="M274.6 88.64c3.09-1.2 3.42 2.38 3.75 4.47.87 6.37 2.05 12.71 2.75 19.1l-.63 1.09c-3.02.32-6.1.01-9.11-.36-4.12-.77-6.05-5.93-4.17-9.48 1.57-3.07 4.96-4.47 8.03-5.59-.3-3.06-1.17-6.15-.62-9.23zm-27.91 8.8c1.27-.24 3.29-.98 3.89.76.79 2.08 1.08 4.31 1.49 6.49 1.49-2.52 2.73-5.93 5.91-6.66 4.18.76 5.32 5.74 6.08 9.28.53 1.55-.08 5.15-2.42 3.48-1.14-2.8-1.51-5.9-3.11-8.51-.25.05-.75.14-1 .19-2.31 3.35-3.65 7.26-5.38 10.92-.67-.21-2-.64-2.66-.86-1.09-5-1.35-10.16-2.8-15.09zm-13.76 1.54c3.22-3.06 10.36-1.86 10.69 3.2-1.87 3.3-6.18 2.96-9.34 4.07 0 1.09.82 2 1.65 2.6 3.14.74 5.73-1.53 8.56-2.4.07 5.89-8.36 8.04-11.88 3.88-2.62-3.09-3.07-8.64.32-11.35z"/><path fill="#c9c9ca" d="M270.32 108.04c-1.13-3.48 2.67-5.85 5.63-6.23.39 2.54.74 5.08 1.07 7.63-2.22.12-5.44 1.08-6.7-1.4zm-92.37 1.34c1.64.91 3.29 1.83 4.87 2.87 8.72 6.06 18.14 11.03 26.77 17.22 6.24 4.07 12.63 7.91 18.79 12.1 8.71 4.8 16.61 10.91 25.23 15.86.26 24.89.14 49.79.06 74.68-15.16-9.76-30.64-19.03-45.56-29.17-9.7-5.93-19.31-12.01-28.77-18.31-1.77-.84-1.43-2.99-1.53-4.6.14-23.55-.13-47.1.14-70.65zm140.1 10.64c5.6-3.35 10.68-7.6 16.7-10.21.08 24.67.12 49.34.02 74.01-.9.74-1.8 1.49-2.69 2.25-4.02-2.42-8.04-4.84-12.06-7.27 1.04-2.09 2.1-4.18 3.15-6.27-6.14-.14-12.28-.28-18.41-.24 2.88 5.49 5.81 10.97 9.19 16.18 1.14-1.83 2.27-3.68 3.4-5.51 3.32 1.73 6.54 3.64 9.71 5.64-10.13 7.14-20.95 13.25-31.21 20.2-7.74 4.51-14.91 9.93-22.64 14.46-4.84 2.84-9.23 6.42-14.34 8.8-.32-23.35.01-46.72-.18-70.07.09-1.67-.24-3.81 1.38-4.88 13.48-8.96 27.25-17.47 40.92-26.15 5.5-3.94 11.3-7.4 17.06-10.94zm1113.52 28.53c9.19-5.14 17.33-11.91 26.51-17.05 8.22 4.39 15.58 10.19 23.69 14.76 16.07 10.21 31.95 20.7 48.25 30.55 1.7 1.09 3.33 2.33 4.92 3.61-20.51 13.74-41.63 26.57-62.08 40.41-4.48 2.55-8.78 5.38-12.99 8.32-4.79-2.39-8.92-5.84-13.62-8.36-4.06-2.17-7.6-5.11-11.43-7.62-8.43-4.71-16.29-10.35-24.58-15.3-8.94-6.18-18.68-11.13-27.37-17.66 16.08-10.77 32.52-21.03 48.7-31.66z"/><path fill="#fa21c0" d="M1320.43 136.23c6.24-.01 12.48.11 18.72.25-1.08 2.09-2.17 4.18-3.23 6.28 3.93 2.41 7.86 4.83 11.84 7.19 12.96 7.88 26.01 15.62 38.97 23.51-1.84 1-3.82 3.37-6.01 1.81-12.65-7.5-25.2-15.18-37.83-22.7-3.17-1.98-6.39-3.88-9.68-5.62a88.943 88.943 0 0 1-3.66 5.5c-3.05-5.41-6.06-10.83-9.12-16.22z"/><path fill="#c9c9ca" d="M932.58 155.76c5.83-2.97 10.6-7.66 16.5-10.47 3.94-.04 6.95 3.46 10.18 5.4 16.83 10.53 33.5 21.29 50.32 31.82 5.67 3.9 11.8 7.09 17.37 11.16-19.78 12.65-39.49 25.41-59.26 38.08-5.72 3.25-10.76 7.55-16.47 10.82-6.31-3.88-12.07-8.6-18.69-11.95-7.47-5.35-15.56-9.75-23.17-14.89-11.47-7.38-23.12-14.49-34.5-21.99 2.72-3.05 6.45-4.79 9.84-6.93 15.83-10.55 32.05-20.5 47.88-31.05z"/><path fill="#53dae6" d="M442.31 167.29c5.16 2.87 9.55 6.93 14.89 9.51 19.89 12.89 40.09 25.33 60.01 38.18.54.38 2.53 1.46.97 2.08-17.27 11.5-34.92 22.43-52.24 33.85-6.16 3.76-12.22 7.69-18.07 11.92-1.59.93-3.5 2.8-5.41 1.5-3.97-2.17-7.78-4.67-11.43-7.34-18.86-11.78-37.6-23.79-56.4-35.69-2.68-1.64-5.63-3.01-7.69-5.46 25.33-15.85 50.35-32.22 75.37-48.55z"/><path fill="#fa21c0" d="M304.76 172.29c6.13-.04 12.27.1 18.41.24-1.05 2.09-2.11 4.18-3.15 6.27 4.02 2.43 8.04 4.85 12.06 7.27 12.04 7.27 24.05 14.58 36.17 21.72 1.04.41 1.61 1.16 1.74 2.25-1.4 1.22-3.51 2.5-5.25 1.16-12.6-7.46-25.1-15.1-37.68-22.6-3.17-2-6.39-3.91-9.71-5.64-1.13 1.83-2.26 3.68-3.4 5.51-3.38-5.21-6.31-10.69-9.19-16.18z"/><path fill="#c9c9ca" d="M1514.42 199.5c7.91-4.47 15.34-9.7 23.08-14.44.07 24.81.04 49.63.02 74.45-9.42 5.88-18.53 12.26-28.08 17.93-7.95 5.4-16.36 10.1-24.17 15.71-8.08 4.52-15.49 10.12-23.58 14.61-.24-24.67.06-49.35-.15-74.03 17.31-11.89 35.6-22.28 52.88-34.23zm-133.34-14.02c17.4 10.23 34 21.74 51.21 32.29 8.11 5.19 16.07 10.62 24.38 15.52.07 24.89.1 49.79.01 74.68-16.39-10.1-32.39-20.83-48.73-31.01-1.28-1.13-.6-3.27-.93-4.8-4.48-2.74-9.18-5.17-13.24-8.53 4.93-2.89 9.44-6.51 14.73-8.79 1.17 1.84 2.36 3.67 3.56 5.51 3.09-5.51 5.99-11.12 8.79-16.78-6.24.45-12.48.92-18.73 1 1.05 2.05 2.09 4.14 3.06 6.25-5.36 3.38-10.77 6.69-16 10.25l-.14.09c-2.66-1.75-5.31-3.5-7.95-5.24-.27-23.47-.19-46.96-.02-70.44zm-367.15 22.45c4.98-3.39 10.25-6.34 15.13-9.9.47 13.32.07 26.66.2 39.99-.11 11.59.22 23.2-.16 34.79-2 1.18-3.92 2.45-5.77 3.82-9.14-6.22-18.47-12.13-27.6-18.35-1.08 1.21-2.14 2.42-3.19 3.64 8.86 5.84 17.68 11.73 26.56 17.53-10.14 6.43-20.42 12.65-30.48 19.22-11.52 7.83-23.45 15.02-35.23 22.42-.04-24.88-.11-49.77.03-74.65 20.33-12.56 40.24-25.82 60.51-38.51zm-141.14-9.16c3.38 1.61 6.51 3.68 9.58 5.81 11.41 7.22 22.93 14.24 34.11 21.81 10.75 6.66 21.43 13.43 31.95 20.44.01 24.67.08 49.34 0 74.01-1.91-.84-3.77-1.76-5.49-2.9-7.15-4.93-14.62-9.36-21.95-14-7.21-5.27-15.14-9.48-22.37-14.71.02-1.3.06-2.6.11-3.9-4.57-2.57-9.09-5.25-13.34-8.33 4.88-3.1 9.58-6.53 14.8-9.07 1.35 1.35 1.81 4.97 4.04 4.68 3.03-5.08 5.82-10.35 8.03-15.84-6.09.64-12.22.77-18.33.92.98 2.08 2.03 4.16 3.12 6.21-5.43 3.46-10.87 6.91-16.32 10.33-2.74-1.63-5.43-3.32-8.02-5.14 0-23.44-.16-46.88.08-70.32z"/><path fill="#53dae6" d="M477.97 248.9c14.52-9.39 29.15-18.63 43.67-28.04.14 24.48.09 48.97.02 73.45-11.46-7.55-22.73-15.44-34.47-22.56-.99 1.1-1.97 2.21-2.96 3.31 11.24 7.64 22.75 14.88 33.92 22.63-9.22 6.35-18.96 11.88-28.2 18.2-6.88 4.03-13.29 8.8-20.12 12.92-8.22 4.68-15.81 10.37-23.98 15.1-.14-24.72.05-49.45-.09-74.17 10.38-7.48 21.54-13.79 32.21-20.84zm-113.26-27.79c5.76 2.77 10.65 6.97 16.24 10.04 8.61 5.73 17.6 10.86 26.06 16.82 10.87 6.89 21.85 13.6 32.57 20.73 1.61.82 1.09 2.85 1.25 4.33-.12 23.63.1 47.26-.1 70.89-16.49-10.32-32.9-20.8-49.15-31.44-.62-1.36-.12-2.95-.22-4.39-4.8-2.32-9.13-5.44-13.67-8.21l.92-.61c4.49-3.03 9.16-5.77 13.6-8.88 1.33 1.97 2.66 3.95 3.97 5.94 3.01-5.55 6.1-11.05 8.77-16.77-6.34.48-12.67.94-19.02 1.09 1.27 1.87 2.54 3.74 3.83 5.61-3.75 2.88-7.9 5.19-11.81 7.84-1.7 1.1-3.45 2.24-5.49 2.59-2.55-1.82-5.74-3.05-7.61-5.63-.31-23.31-.04-46.64-.14-69.95z"/><path fill="#ef30d5" d="M1294.3 243.35c10.17-6.13 19.86-12.99 29.82-19.43 3.44 2.27 6.94 4.44 10.57 6.4 16.16 10.92 32.83 21.04 49.31 31.48 5.83 3.4 11.13 7.67 17.2 10.68-1.85 2.59-5.1 3.48-7.55 5.34-7.98 5.72-16.62 10.44-24.59 16.18-8.39 4.82-16.18 10.58-24.53 15.48-5.96 4.58-12.54 8.21-18.74 12.43-18-11.61-36.12-23.02-54.22-34.48-7.79-4.8-15.3-10.07-23.3-14.53 15.46-9.66 30.73-19.63 46.03-29.55z"/><path fill="#c9c9ca" d="M800.42 247.54c4.93-3.77 10.3-6.88 15.58-10.13 25.93 15.92 51.39 32.6 77.2 48.72-24.89 16.08-49.89 32-74.62 48.31-2.63 1.29-4.74-2.07-6.94-3.13-23.67-15.21-47.6-30.03-71.23-45.3 11.69-7.48 23.35-15 34.94-22.62 8.61-4.88 16.51-10.89 25.07-15.85z"/><path fill="#fa21c0" d="M1402.13 244.57c6.25-.08 12.49-.55 18.73-1-2.8 5.66-5.7 11.27-8.79 16.78-1.2-1.84-2.39-3.67-3.56-5.51-5.29 2.28-9.8 5.9-14.73 8.79-1.78-.25-3.11-1.74-4.59-2.56 5.23-3.56 10.64-6.87 16-10.25-.97-2.11-2.01-4.2-3.06-6.25zm-508.2 13.12c6.11-.15 12.24-.28 18.33-.92-2.21 5.49-5 10.76-8.03 15.84-2.23.29-2.69-3.33-4.04-4.68-5.22 2.54-9.92 5.97-14.8 9.07-1.59-.89-3.14-1.82-4.66-2.77 5.45-3.42 10.89-6.87 16.32-10.33-1.09-2.05-2.14-4.13-3.12-6.21zm98.61 4.23c1.05-1.22 2.11-2.43 3.19-3.64 9.13 6.22 18.46 12.13 27.6 18.35 10.55 6.91 20.77 14.38 31.68 20.72.9-1.63 1.83-3.26 2.76-4.89.33.03 1.01.1 1.34.13 2.32 5.5 5.33 10.67 7.88 16.07-6.3.01-12.54-.74-18.79-1.26 1.4-1.93 2.69-3.94 3.79-6.07-11.06-7.15-22-14.48-32.89-21.88-8.88-5.8-17.7-11.69-26.56-17.53z"/><path fill="#c9c9ca" d="M304.4 262.41c1.5-.81 3.07-2.82 4.93-1.9 22.2 14.2 44.5 28.28 66.72 42.44 3.1 1.94 6.34 3.66 9.21 5.94-6.89 5.4-14.76 9.34-21.84 14.46-17.8 11.12-35.34 22.63-52.89 34.14-1.54.53-2.94-1.1-4.23-1.76-7.1-5.45-15.26-9.29-22.44-14.62-17.05-10.57-33.95-21.43-50.9-32.2 23.6-15.8 47.9-30.6 71.44-46.5zm755.76 52.46c25.3-16.34 50.62-32.61 75.89-48.99 5.23 3.96 11.36 6.5 16.59 10.5 20.07 12.86 40.1 25.82 60.5 38.16-3.51 3.16-7.99 4.92-11.68 7.85-16 10.31-32.01 20.61-48.06 30.86-5.01 3.89-10.68 6.79-15.8 10.51-25.83-16.24-51.42-32.92-77.44-48.89z"/><path fill="#fa21c0" d="M487.19 271.75c11.74 7.12 23.01 15.01 34.47 22.56 8.13 5.62 16.53 10.84 24.63 16.49 1.29-1.93 2.56-3.88 3.82-5.82 3.01 5.51 5.6 11.25 8.67 16.73-6.29.01-12.58-.27-18.8-1.24 1.31-1.88 2.6-3.77 3.91-5.66-8.54-5.76-17.19-11.36-25.74-17.12-11.17-7.75-22.68-14.99-33.92-22.63.99-1.1 1.97-2.21 2.96-3.31z"/><path fill="#ef30d5" d="M1246.72 277.84c6.45 3.09 12.03 7.67 18.23 11.22 12.01 7.23 23.42 15.42 35.44 22.65 6.27 3.48 11.92 7.96 18.07 11.66 1.52 1.28 4.49 2.02 4.06 4.54-.01 24.06.04 48.13-.03 72.2-3.22-1.53-6.19-3.49-9.1-5.52-22.34-14.01-44.45-28.37-66.67-42.56-.05-24.73-.06-49.46 0-74.19zm154.43 1.32c.84-.45 1.7-.89 2.58-1.31.06 24.07.03 48.14.03 72.21.15 1.36-.38 2.61-1.67 3.17-24.6 15.83-49.38 31.37-73.92 47.32-.21-24.85-.11-49.7-.07-74.55 8.18-5.09 15.91-10.88 24.3-15.63 16.24-10.43 32.41-20.94 48.75-31.21z"/><path fill="#c9c9ca" d="M617.03 285.94c3.6-2.19 6.91-4.84 10.69-6.73 25.86 16.09 51.41 32.7 77.21 48.87-25.33 16.27-50.74 32.41-75.85 49.02-3.35-2.06-6.34-4.64-9.78-6.54-6.29-3.12-11.55-7.87-17.66-11.26-16.64-10.32-33.07-20.97-49.7-31.3 21.73-13.97 43.44-27.97 65.09-42.06z"/><path fill="#fa21c0" d="M385.93 280.65c6.35-.15 12.68-.61 19.02-1.09-2.67 5.72-5.76 11.22-8.77 16.77-1.31-1.99-2.64-3.97-3.97-5.94-4.44 3.11-9.11 5.85-13.6 8.88-2.11.82-4.18-1.77-6.15-2.58 2.04-.35 3.79-1.49 5.49-2.59 3.91-2.65 8.06-4.96 11.81-7.84-1.29-1.87-2.56-3.74-3.83-5.61z"/><path fill="#c9c9ca" d="M738.53 291.09c3.15 1.51 6.11 3.39 8.96 5.42 16.48 10.12 32.5 20.97 48.98 31.09 5.71 4.12 11.96 7.42 17.68 11.53.15 24.72.16 49.45 0 74.16-15.74-9.19-30.83-19.44-46.2-29.23-9.21-5.32-17.77-11.68-26.96-17.01-1-.81-2.78-1.47-2.47-3.06-.03-24.3-.08-48.6.01-72.9zm140.48 10.01c5.65-3.06 10.64-7.2 16.42-10.03.12 23.97.02 47.95.08 71.93.45 3.6-3.93 4.51-6.22 6.26-19.89 12.84-39.89 25.52-59.84 38.27-3.11 2.1-6.36 3.97-9.65 5.79-.16-24.72-.11-49.44-.02-74.16 19.61-12.89 39.57-25.24 59.23-38.06zM118.03 303c1.18-.9 2.72-1.06 3.88-.03 24.98 16.08 50.2 31.8 75.21 47.82-12.57 8.64-25.73 16.41-38.38 24.94-12.68 7.73-24.69 16.49-37.54 23.92-5.17-3.05-9.77-6.97-15.12-9.72-14.3-9.45-28.91-18.43-43.38-27.62-5.82-4.14-12.42-7.13-17.79-11.89C69.3 334.63 93.92 319.2 118.03 303zm112.96 10.64c11.95 7.07 23.31 15.1 35.22 22.23 13.24 9.17 27.4 16.93 40.5 26.31-.02 24.68.04 49.37-.03 74.06-9.95-5.95-19.61-12.32-29.46-18.43-12.5-8.66-25.9-15.95-38.25-24.84-2.54-1.82-5.57-2.91-7.9-5.01-.61-13.61-.07-27.28-.25-40.91.1-11.14-.22-22.28.17-33.41zm129.21 17.47c9.23-5.68 18.04-12.08 27.56-17.23.14 24.66.06 49.33.08 73.99-2.89 2.15-6.05 3.9-9.04 5.92-8.19 5.98-17.21 10.66-25.51 16.49-7.15 4.01-13.57 9.14-20.67 13.24-7.08 3.99-13.46 9.12-20.75 12.74-.27-23.43.01-46.87-.16-70.3.11-1.64-.3-3.8 1.51-4.65 7.88-5.55 16.32-10.26 24.26-15.71 7.78-4.51 15.05-9.81 22.72-14.49zm698.4-11.47c6.87 3.93 13.35 8.51 20.14 12.58 7.38 4.13 13.97 9.49 21.27 13.76 11.53 7.19 23.06 14.4 34.33 22.03.04 24.74.19 49.5-.08 74.25-19.08-11.66-37.67-24.1-56.58-36.03-6.47-3.94-12.77-8.14-19.14-12.24-.03-24.78-.14-49.57.06-74.35zm131.04 16.04c8.95-4.65 16.61-11.49 25.8-15.67-.02 24.38.18 48.77-.06 73.14-1.92 2.84-5.48 4.22-8.02 6.53-8.49-5.82-17.14-11.4-25.58-17.28-.98 1.26-1.95 2.53-2.91 3.8 7.99 5.46 16.03 10.84 24.1 16.18-21.55 12.81-42.32 26.93-63.58 40.24.09-24.8.04-49.6 0-74.39 16.38-11.41 33.83-21.2 50.25-32.55zm-639.33-2.84c25.42 15.81 50.45 32.23 75.77 48.19.04 24.79.15 49.59-.05 74.39-18.28-11-35.86-23.1-54.08-34.19-6.74-4.39-13.36-8.94-20.3-12.99-1.71-.71-1.31-2.74-1.45-4.22.1-23.73-.11-47.46.11-71.18zm137.51 11.98c6.66-3.64 12.58-8.46 19.38-11.86.19 23.68 0 47.37.1 71.05.22 4.8-5.44 6.23-8.52 8.73-8.09-5.43-16.08-11.02-24.3-16.25-2.06-1.13-2.8 1.92-3.78 3.14 8.03 5.23 15.88 10.71 23.91 15.94-15.6 9.27-30.67 19.38-45.96 29.14-5.99 3.15-11.11 7.76-17.38 10.4-.07-24.59-.14-49.18.03-73.76 18.5-12.66 37.84-24.1 56.52-36.53z"/><path fill="#747173" d="M104.46 339.74c5.18-1.3 2.63 5.63 2.77 8.48 2.09.29 6.55-.66 5.91 2.78-1.82 1.12-4.05.88-6.08 1.17-.21 2.28-.4 4.57-.57 6.87 3.6-1.11 6.94-2.88 10.48-4.14.55 3.62-3.08 5.25-5.72 6.55-2.3.88-5.35 2.84-7.35.38-1.8-2.79-.79-6.26-.76-9.35-1.71-.49-4.92.99-5.13-1.72.8-2.19 3.68-1.54 5.49-2.19.19-2.96.25-5.95.96-8.83zm52.16-.02c5.23-1.22 2.64 5.64 2.67 8.5 2.24.36 6.75-.74 6.01 2.89-1.93.9-4.12.8-6.19 1.01-.1 2.31-.19 4.63-.27 6.95 3.16-.99 6.01-2.73 9.14-3.76 2.06-.67 1.26 2.19.4 2.97-2.36 2.18-5.39 3.53-8.43 4.49-1.47.72-2.91.08-4.02-.94-1.22-2.96-.57-6.25-.53-9.36-1.57-.05-3.13-.09-4.68-.25-1.8-3.44 2.96-3.1 4.95-3.68.12-2.96.2-5.95.95-8.82zm-37.03 4.95c2.66-2.35 7.25-5.74 10.47-2.52 1.67 3.79.98 8.09 1.27 12.11.59 1.28 2.57 2.74 1.3 4.21-3.31.92-6.38 2.47-9.61 3.6-4.56.12-5.64-6.06-2.85-8.83 1.72-2.49 4.82-2.78 7.55-2.22-.08-2.25-.24-4.5-.47-6.73-2.8.88-5.04 2.81-7.48 4.35-2.59.06-1.7-3.2-.18-3.97zm-35.54 5.19c-2.06-5.48 6.51-10.67 10.36-6.16 1.02 1.25.78 2.95.67 4.44-1.96.56-2.7-1.69-3.73-2.82-1.72.62-3.32 1.53-4.75 2.69 3.21 3.37 8.53 4.51 10.66 8.86.73 4.61-4.54 6.33-8.13 6.79-2.16.52-6.09.52-6-2.56 3.11-2.02 7.72-.7 10.82-3.37-2.91-3.13-7.36-4.41-9.9-7.87zm55.66-1.46c2.69-3.27 6.28-6.4 10.86-5.69-1.05 3.72-5.84 4.07-7.39 7.5-2.14 3.16-1.18 7.44-3.22 10.53-.48-.18-1.43-.54-1.9-.72-2.37-5.05-2.65-10.92-3.12-16.43.77.15 2.32.45 3.09.59.72 2.1-.45 4.43.37 6.51 1.21.9 2.81-1.38 1.31-2.29z"/><path fill="#c9c9ca" d="M122.11 358.68c.03-1.66.28-3.53 1.96-4.32 1.32-1.3 3.47.87 2.79 2.23-1.47.93-3.15 1.45-4.75 2.09zm-79.31-3.02c18.46 11.27 36.46 23.26 54.78 34.77 6.9 4.49 14.07 8.59 20.71 13.48.25 1 .36 2.02.32 3.07-.09 23.72.01 47.45-.05 71.17-5.96-3.02-11.28-7.11-16.95-10.61-7.86-4.33-15.04-9.78-22.73-14.4-8.85-5.88-18.14-11.06-26.8-17.23-2.92-2.23-6.4-3.59-9.23-5.93-.49-13.62-.05-27.28-.2-40.92.09-11.13-.19-22.27.15-33.4zm120.62 22.79c11.94-7.42 23.52-15.44 35.66-22.51.31 24.65.19 49.31.06 73.96-1.3 1.2-2.59 2.42-3.87 3.65-10.17-6.91-20.32-13.86-30.56-20.69-.78 1.39-1.72 2.67-2.49 4.07 9.36 6.26 18.63 12.65 27.99 18.9-3.95 2.89-8 5.65-12.29 8.02-13.4 8.21-26.31 17.17-39.75 25.3-4.91 2.87-9.23 6.77-14.61 8.77-.03-24.65-.05-49.3.01-73.95 13.17-8.69 26.69-16.83 39.85-25.52z"/><path fill="#fa21c0" d="M1178.87 386.2c.96-1.27 1.93-2.54 2.91-3.8 8.44 5.88 17.09 11.46 25.58 17.28 12.96 8.42 25.53 17.47 38.68 25.59 1.17-1.86 2.46-3.65 3.95-5.27 2.53 5.57 5.69 10.86 7.94 16.57-6.07.15-12.07-.81-18.1-1.1 1.04-2.09 2.17-4.14 3.23-6.22-13.38-8.94-26.71-17.94-40.09-26.87-8.07-5.34-16.11-10.72-24.1-16.18zM670.7 399.63c.98-1.22 1.72-4.27 3.78-3.14 8.22 5.23 16.21 10.82 24.3 16.25 13.15 8.49 25.84 17.69 39.17 25.9 1.05-1.9 2.13-3.78 3.25-5.64 3.33 5.28 5.66 11.13 8.63 16.63-6.24.16-12.48-.32-18.65-1.21 1.34-1.9 2.62-3.83 3.78-5.83-13.48-8.96-26.89-18.03-40.35-27.02-8.03-5.23-15.88-10.71-23.91-15.94z"/><path fill="#c9c9ca" d="M1312.35 405.37c1.84-1.22 3.56-2.76 5.74-3.36 2.64.84 4.64 2.97 7.26 3.86 2.69-1.23 5.12-2.94 7.64-4.5 16.24 9.88 32.05 20.46 48.24 30.42 6.91 4.98 14.7 8.69 21.37 13.99-25.07 16.48-50.47 32.42-75.53 48.9-8.06-6.07-16.99-10.77-25.28-16.47-17.1-10.76-34.16-21.59-51.19-32.44 2.32-2.58 5.5-4.07 8.37-5.94 17.81-11.46 35.63-22.92 53.38-34.46z"/><path fill="#fa21c0" d="M1323.74 410.7c1-1.77 1.77-3.91 3.78-4.79 2.65 5.3 6.16 10.13 8.56 15.56-2.24.02-4.49.03-6.71.03-.24 9.32-.03 18.64-.07 27.96-1.62.02-3.22.05-4.8.09-.09-9.29-.05-18.58-.09-27.87-2.22.04-4.43.07-6.62.09 1.7-3.84 4.01-7.35 5.95-11.07zm-1161.52 6.23c.77-1.4 1.71-2.68 2.49-4.07 10.24 6.83 20.39 13.78 30.56 20.69 12.71 8.37 25.13 17.18 37.93 25.4 1.16-1.84 2.01-4.18 4.2-5.05 2.33 5.6 5.41 10.86 7.57 16.54-5.91-.61-11.83-1.1-17.77-1.16.04-.49.11-1.46.15-1.94 1.11-1.45 2.13-2.98 2.66-4.74-13.37-8.76-26.49-17.91-39.8-26.77-9.36-6.25-18.63-12.64-27.99-18.9z"/><path fill="#ab51f7" d="M791.76 426.81c5.64-4.02 11.48-7.79 17.41-11.36 3.05-.16 5.33 2.76 7.8 4.25 2.52-1.89 5.17-3.6 7.89-5.2 17.46 11.46 35.37 22.21 52.79 33.74 5.89 3.28 11.31 7.3 17.19 10.61-19.03 12.18-38.11 24.32-56.98 36.75-6.63 3.54-12.38 8.48-18.87 12.29-25.51-16.74-51.59-32.6-77.16-49.26 16.85-10.27 33.04-21.61 49.93-31.82z"/><path fill="#fa21c0" d="M818.29 418.94c4.12 4.57 6.46 10.42 9.64 15.64-2.15.04-4.31.05-6.45.05-.49 1.74-.84 3.53-.77 5.35.08 7.62.01 15.25.1 22.88-1.53 0-3.06 0-4.58.01-.13-9.21.42-18.45-.47-27.63-2.01.02-4.02.03-6.01.03 1.99-5.84 5.7-10.88 8.54-16.33z"/><path fill="#c9c9ca" d="M298.16 440.11c1.44-.85 2.95-1.97 4.7-1.84 2.33.96 4.31 2.55 6.39 3.95 2.62-1.54 5.2-3.16 7.75-4.82 8.03 4.34 15.26 9.95 23.18 14.48 15.52 10.1 31.37 19.71 46.89 29.83-17.54 11.25-35.06 22.5-52.53 33.84-3.33 1.95-6.73 3.8-9.74 6.23-4.07 3.29-8.75 5.67-13.06 8.61-8.37-4.11-15.53-10.24-23.74-14.63-12.02-7.94-24.22-15.59-36.44-23.2-5.75-3.64-11.35-7.53-17.33-10.79 9.39-6.59 19.3-12.38 28.83-18.75 11.64-7.74 23.66-14.88 35.1-22.91z"/><path fill="#fa21c0" d="M308.63 444.52c.17-.07.5-.2.67-.26 3.09 5.1 6.29 10.18 8.84 15.59-2.25.23-4.51.38-6.77.48-.03 8.77.02 17.54.01 26.31-1.62.02-3.24.04-4.85.07-.03-8.78-.06-17.57-.04-26.35-2.2.06-4.41.09-6.61.13 2.59-5.49 5.66-10.76 8.75-15.97z"/><path fill="#c9c9ca" d="M1248.34 450.8c4.73 1.42 8.27 5.08 12.58 7.35 15.43 9.89 30.79 19.84 46.3 29.6 5.5 3.86 11.66 6.79 16.77 11.22.3 24.65.19 49.35.05 74.02-7.16-4.15-13.83-9.04-21.03-13.09-10.55-6.74-20.84-13.88-31.65-20.19-7.67-5-15.19-10.2-23.04-14.9.01-24.67-.06-49.34.02-74.01zm140.99 9.47c5.49-2.89 10.04-7.37 15.9-9.56.31 24.49.01 49 .18 73.49-15.82 11.5-33.03 20.97-49.12 32.08-9.06 5.48-17.79 11.47-26.94 16.79.01-24.81-.17-49.62.05-74.43 19.94-12.85 40.03-25.46 59.93-38.37z"/><path fill="#ab51f7" d="M739.98 463.72c5.03 2.08 8.95 6.03 13.83 8.42 8.18 5.61 16.88 10.42 24.98 16.16 12.3 7.95 24.98 15.35 36.98 23.79.03 24.8 0 49.61.01 74.42-4.93-3.58-10.35-6.4-15.28-9.98-13.57-7.96-26.36-17.14-39.81-25.29-6.66-3.88-12.87-8.44-19.41-12.49-1.8-.89-1.29-3.17-1.43-4.79.13-23.41-.12-46.83.13-70.24zm105.43 32.66c17.1-10.94 34.06-22.15 51.41-32.67.52 9.4.33 18.84.18 28.25.29 8.33.26 16.68-.09 25 .22 6.36.47 12.74.18 19.1-.02 1.12-.49 1.99-1.43 2.6-15.3 10.51-31.4 19.81-46.74 30.27-9.48 5.8-18.85 11.76-28.14 17.85-.02-24.7.05-49.39-.05-74.08 7.67-6.23 16.44-10.91 24.68-16.32z"/><path fill="#c9c9ca" d="M232.51 486.11c5.96 4.26 12.42 7.76 18.37 12.04 13.34 7.82 25.9 16.91 39.25 24.72 6.09 3.97 12.23 7.86 18.2 12.01-.11 24.8.23 49.62-.17 74.42-12.24-8.35-25.17-15.66-37.35-24.09-12.84-8.11-25.78-16.07-38.38-24.54.09-24.86-.11-49.71.08-74.56zm139.69 11.06c5.63-3.54 11.03-7.51 17.04-10.43.46 24.49.01 48.99.24 73.49-6.86 5.38-14.37 9.89-21.84 14.36-17.94 11.93-36.39 23.05-54.27 35.07.05-22.57.02-45.15-.01-67.73.08-2.33-.33-4.77.36-7.01 4.8-3.68 10.16-6.58 15.03-10.18 14.74-8.78 28.86-18.54 43.45-27.57z"/></svg>