<svg viewBox="0 0 441 131" xmlns="http://www.w3.org/2000/svg" fill-rule="evenodd" clip-rule="evenodd" stroke-linejoin="round" stroke-miterlimit="1.414"><g fill="#58595b" fill-rule="nonzero"><path d="M147.337 69.716c0 6.651 4.57 11.665 11.119 11.665 6.719 0 11.117-5.219 11.117-11.665 0-6.447-4.501-11.63-11.117-11.63-6.549 0-11.119 5.014-11.119 11.63zm27.965 0c0 9.789-7.126 16.884-16.2 16.884-5.114 0-8.902-1.981-11.424-5.014V99.56h-5.56V53.516h5.56v4.332c2.522-3.035 6.31-5.014 11.424-5.014 9.074 0 16.2 7.095 16.2 16.882zM203.513 53.891l-1.364 5.493c-1.535-.82-3.716-1.264-5.559-1.264-4.945 0-8.423 3.786-8.423 9.753v18.043h-5.56v-32.4h5.491v4.264c2.25-3.174 5.628-4.945 9.484-4.945 2.317 0 4.191.305 5.931 1.056zM211.023 69.716c0 6.785 4.911 11.665 11.427 11.665 6.48 0 11.424-4.88 11.424-11.665 0-6.785-4.944-11.63-11.424-11.63-6.516 0-11.427 4.845-11.427 11.63zm28.58 0c0 9.617-7.331 16.884-17.153 16.884-9.823 0-17.123-7.267-17.123-16.884 0-9.618 7.3-16.882 17.123-16.882 9.822 0 17.153 7.264 17.153 16.882zM252.468 66.477h4.432l12.042-12.963h7.026l-14.462 15.28 14.664 17.123h-7.059l-12.243-14.393h-4.4v14.393h-5.559V36.804h5.559v29.673zM283.035 69.716c0 6.446 4.5 11.665 11.152 11.665 6.547 0 11.117-5.014 11.117-11.665 0-6.616-4.57-11.63-11.117-11.63-6.754 0-11.152 5.183-11.152 11.63zm27.521 16.2h-5.593v-4.33c-2.558 3.033-6.345 5.014-11.425 5.014-9.107 0-16.202-7.095-16.202-16.884 0-9.787 7.095-16.882 16.202-16.882 5.08 0 8.867 1.979 11.425 5.048v-4.366h5.593v32.4zM341.223 53.891l-1.363 5.493c-1.535-.82-3.717-1.264-5.56-1.264-4.944 0-8.423 3.786-8.423 9.753v18.043h-5.559v-32.4h5.49v4.264c2.251-3.174 5.629-4.945 9.484-4.945 2.317 0 4.191.305 5.931 1.056zM400.538 65.793v20.125h-5.595V67.6c0-5.967-3.273-9.479-8.9-9.479-5.354 0-9.55 3.717-9.55 9.618v18.179H370.9V67.6c0-5.967-3.274-9.479-8.9-9.479-5.218 0-9.584 3.579-9.584 9.618v18.179h-5.559V53.515h5.523v4.23c2.661-3.648 6.857-4.911 10.61-4.911 5.488 0 9.822 2.455 11.97 6.513 2.66-4.911 7.674-6.513 12.071-6.513 8.014 0 13.507 5.185 13.507 12.959zM413.2 69.716c0 6.446 4.503 11.665 11.155 11.665 6.547 0 11.117-5.014 11.117-11.665 0-6.616-4.57-11.63-11.117-11.63-6.754 0-11.155 5.183-11.155 11.63zm27.524 16.2h-5.593v-4.33c-2.555 3.033-6.344 5.014-11.425 5.014-9.106 0-16.202-7.095-16.202-16.884 0-9.787 7.096-16.882 16.202-16.882 5.081 0 8.87 1.979 11.425 5.048v-4.366h5.593v32.4zM40.789 84.689c8.374 0 13.857-6.505 13.857-14.54s-5.61-14.496-13.857-14.496c-8.163 0-13.859 6.25-13.859 14.496 0 8.291 5.696 14.54 13.859 14.54z"/><path d="M73.523 10.196v56.813h5.524l15.01-16.157h8.758L84.788 69.897l18.279 21.343h-8.799L79.009 73.3h-5.486v17.94h-6.93V.298A61.484 61.484 0 0 0 60.647 0C27.151 0 0 27.152 0 60.648 0 78.702 7.904 94.9 20.424 106.01V49.957h6.93v5.399c3.144-3.783 7.866-6.249 14.24-6.249 11.311 0 20.193 8.843 20.193 21.042 0 12.201-8.882 21.045-20.193 21.045-6.374 0-11.096-2.47-14.24-6.249v35.207a60.356 60.356 0 0 0 33.293 9.958c33.496 0 60.648-27.155 60.648-60.647 0-29.076-20.463-53.363-47.772-59.267z"/></g></svg>